<?xml version="1.0" encoding="utf-8" standalone="no"?>
<!DOCTYPE svg PUBLIC "-//W3C//DTD SVG 1.1//EN"
  "http://www.w3.org/Graphics/SVG/1.1/DTD/svg11.dtd">
<svg xmlns:xlink="http://www.w3.org/1999/xlink" width="1000.816029pt" height="443.908125pt" viewBox="0 0 1000.816029 443.908125" xmlns="http://www.w3.org/2000/svg" version="1.1">
 <metadata>
  <rdf:RDF xmlns:dc="http://purl.org/dc/elements/1.1/" xmlns:cc="http://creativecommons.org/ns#" xmlns:rdf="http://www.w3.org/1999/02/22-rdf-syntax-ns#">
   <cc:Work>
    <dc:type rdf:resource="http://purl.org/dc/dcmitype/StillImage"/>
    <dc:date>2026-06-18T14:54:10.209192</dc:date>
    <dc:format>image/svg+xml</dc:format>
    <dc:creator>
     <cc:Agent>
      <dc:title>Matplotlib v3.10.9, https://matplotlib.org/</dc:title>
     </cc:Agent>
    </dc:creator>
   </cc:Work>
  </rdf:RDF>
 </metadata>
 <defs>
  <style type="text/css">*{stroke-linejoin: round; stroke-linecap: butt}</style>
 </defs>
 <g id="figure_1">
  <g id="patch_1">
   <path d="M 0 443.908125 
L 1000.816029 443.908125 
L 1000.816029 0 
L 0 0 
z
" style="fill: #ffffff"/>
  </g>
  <g id="axes_1">
   <g id="patch_2">
    <path d="M 40.722813 409.74 
L 491.639421 409.74 
L 491.639421 64.03875 
L 40.722813 64.03875 
z
" style="fill: #ffffff"/>
   </g>
   <g id="matplotlib.axis_1">
    <g id="xtick_1">
     <g id="line2d_1">
      <path d="M 61.219022 409.74 
L 61.219022 64.03875 
" clip-path="url(#p95a3c19faf)" style="fill: none; stroke-dasharray: 2.96,1.28; stroke-dashoffset: 0; stroke: #cccccc; stroke-opacity: 0.5; stroke-width: 0.8"/>
     </g>
     <g id="line2d_2"/>
     <g id="text_1">
      <!-- 16 -->
      <g style="fill: #262626" transform="translate(55.658084 420.397812) scale(0.1 -0.1)">
       <defs>
        <path id="ArialMT-31" d="M 2384 0 
L 1822 0 
L 1822 3584 
Q 1619 3391 1289 3197 
Q 959 3003 697 2906 
L 697 3450 
Q 1169 3672 1522 3987 
Q 1875 4303 2022 4600 
L 2384 4600 
L 2384 0 
z
" transform="scale(0.015625)"/>
        <path id="ArialMT-36" d="M 3184 3459 
L 2625 3416 
Q 2550 3747 2413 3897 
Q 2184 4138 1850 4138 
Q 1581 4138 1378 3988 
Q 1113 3794 959 3422 
Q 806 3050 800 2363 
Q 1003 2672 1297 2822 
Q 1591 2972 1913 2972 
Q 2475 2972 2870 2558 
Q 3266 2144 3266 1488 
Q 3266 1056 3080 686 
Q 2894 316 2569 119 
Q 2244 -78 1831 -78 
Q 1128 -78 684 439 
Q 241 956 241 2144 
Q 241 3472 731 4075 
Q 1159 4600 1884 4600 
Q 2425 4600 2770 4297 
Q 3116 3994 3184 3459 
z
M 888 1484 
Q 888 1194 1011 928 
Q 1134 663 1356 523 
Q 1578 384 1822 384 
Q 2178 384 2434 671 
Q 2691 959 2691 1453 
Q 2691 1928 2437 2201 
Q 2184 2475 1800 2475 
Q 1419 2475 1153 2201 
Q 888 1928 888 1484 
z
" transform="scale(0.015625)"/>
       </defs>
       <use xlink:href="#ArialMT-31"/>
       <use xlink:href="#ArialMT-36" transform="translate(55.615234 0)"/>
      </g>
     </g>
    </g>
    <g id="xtick_2">
     <g id="line2d_3">
      <path d="M 129.53972 409.74 
L 129.53972 64.03875 
" clip-path="url(#p95a3c19faf)" style="fill: none; stroke-dasharray: 2.96,1.28; stroke-dashoffset: 0; stroke: #cccccc; stroke-opacity: 0.5; stroke-width: 0.8"/>
     </g>
     <g id="line2d_4"/>
     <g id="text_2">
      <!-- 32 -->
      <g style="fill: #262626" transform="translate(123.978783 420.397812) scale(0.1 -0.1)">
       <defs>
        <path id="ArialMT-33" d="M 269 1209 
L 831 1284 
Q 928 806 1161 595 
Q 1394 384 1728 384 
Q 2125 384 2398 659 
Q 2672 934 2672 1341 
Q 2672 1728 2419 1979 
Q 2166 2231 1775 2231 
Q 1616 2231 1378 2169 
L 1441 2663 
Q 1497 2656 1531 2656 
Q 1891 2656 2178 2843 
Q 2466 3031 2466 3422 
Q 2466 3731 2256 3934 
Q 2047 4138 1716 4138 
Q 1388 4138 1169 3931 
Q 950 3725 888 3313 
L 325 3413 
Q 428 3978 793 4289 
Q 1159 4600 1703 4600 
Q 2078 4600 2393 4439 
Q 2709 4278 2876 4000 
Q 3044 3722 3044 3409 
Q 3044 3113 2884 2869 
Q 2725 2625 2413 2481 
Q 2819 2388 3044 2092 
Q 3269 1797 3269 1353 
Q 3269 753 2831 336 
Q 2394 -81 1725 -81 
Q 1122 -81 723 278 
Q 325 638 269 1209 
z
" transform="scale(0.015625)"/>
        <path id="ArialMT-32" d="M 3222 541 
L 3222 0 
L 194 0 
Q 188 203 259 391 
Q 375 700 629 1000 
Q 884 1300 1366 1694 
Q 2113 2306 2375 2664 
Q 2638 3022 2638 3341 
Q 2638 3675 2398 3904 
Q 2159 4134 1775 4134 
Q 1369 4134 1125 3890 
Q 881 3647 878 3216 
L 300 3275 
Q 359 3922 746 4261 
Q 1134 4600 1788 4600 
Q 2447 4600 2831 4234 
Q 3216 3869 3216 3328 
Q 3216 3053 3103 2787 
Q 2991 2522 2730 2228 
Q 2469 1934 1863 1422 
Q 1356 997 1212 845 
Q 1069 694 975 541 
L 3222 541 
z
" transform="scale(0.015625)"/>
       </defs>
       <use xlink:href="#ArialMT-33"/>
       <use xlink:href="#ArialMT-32" transform="translate(55.615234 0)"/>
      </g>
     </g>
    </g>
    <g id="xtick_3">
     <g id="line2d_5">
      <path d="M 197.860418 409.74 
L 197.860418 64.03875 
" clip-path="url(#p95a3c19faf)" style="fill: none; stroke-dasharray: 2.96,1.28; stroke-dashoffset: 0; stroke: #cccccc; stroke-opacity: 0.5; stroke-width: 0.8"/>
     </g>
     <g id="line2d_6"/>
     <g id="text_3">
      <!-- 64 -->
      <g style="fill: #262626" transform="translate(192.299481 420.397812) scale(0.1 -0.1)">
       <defs>
        <path id="ArialMT-34" d="M 2069 0 
L 2069 1097 
L 81 1097 
L 81 1613 
L 2172 4581 
L 2631 4581 
L 2631 1613 
L 3250 1613 
L 3250 1097 
L 2631 1097 
L 2631 0 
L 2069 0 
z
M 2069 1613 
L 2069 3678 
L 634 1613 
L 2069 1613 
z
" transform="scale(0.015625)"/>
       </defs>
       <use xlink:href="#ArialMT-36"/>
       <use xlink:href="#ArialMT-34" transform="translate(55.615234 0)"/>
      </g>
     </g>
    </g>
    <g id="xtick_4">
     <g id="line2d_7">
      <path d="M 266.181117 409.74 
L 266.181117 64.03875 
" clip-path="url(#p95a3c19faf)" style="fill: none; stroke-dasharray: 2.96,1.28; stroke-dashoffset: 0; stroke: #cccccc; stroke-opacity: 0.5; stroke-width: 0.8"/>
     </g>
     <g id="line2d_8"/>
     <g id="text_4">
      <!-- 128 -->
      <g style="fill: #262626" transform="translate(257.83971 420.397812) scale(0.1 -0.1)">
       <defs>
        <path id="ArialMT-38" d="M 1131 2484 
Q 781 2613 612 2850 
Q 444 3088 444 3419 
Q 444 3919 803 4259 
Q 1163 4600 1759 4600 
Q 2359 4600 2725 4251 
Q 3091 3903 3091 3403 
Q 3091 3084 2923 2848 
Q 2756 2613 2416 2484 
Q 2838 2347 3058 2040 
Q 3278 1734 3278 1309 
Q 3278 722 2862 322 
Q 2447 -78 1769 -78 
Q 1091 -78 675 323 
Q 259 725 259 1325 
Q 259 1772 486 2073 
Q 713 2375 1131 2484 
z
M 1019 3438 
Q 1019 3113 1228 2906 
Q 1438 2700 1772 2700 
Q 2097 2700 2305 2904 
Q 2513 3109 2513 3406 
Q 2513 3716 2298 3927 
Q 2084 4138 1766 4138 
Q 1444 4138 1231 3931 
Q 1019 3725 1019 3438 
z
M 838 1322 
Q 838 1081 952 856 
Q 1066 631 1291 507 
Q 1516 384 1775 384 
Q 2178 384 2440 643 
Q 2703 903 2703 1303 
Q 2703 1709 2433 1975 
Q 2163 2241 1756 2241 
Q 1359 2241 1098 1978 
Q 838 1716 838 1322 
z
" transform="scale(0.015625)"/>
       </defs>
       <use xlink:href="#ArialMT-31"/>
       <use xlink:href="#ArialMT-32" transform="translate(55.615234 0)"/>
       <use xlink:href="#ArialMT-38" transform="translate(111.230469 0)"/>
      </g>
     </g>
    </g>
    <g id="xtick_5">
     <g id="line2d_9">
      <path d="M 334.501815 409.74 
L 334.501815 64.03875 
" clip-path="url(#p95a3c19faf)" style="fill: none; stroke-dasharray: 2.96,1.28; stroke-dashoffset: 0; stroke: #cccccc; stroke-opacity: 0.5; stroke-width: 0.8"/>
     </g>
     <g id="line2d_10"/>
     <g id="text_5">
      <!-- 256 -->
      <g style="fill: #262626" transform="translate(326.160409 420.397812) scale(0.1 -0.1)">
       <defs>
        <path id="ArialMT-35" d="M 266 1200 
L 856 1250 
Q 922 819 1161 601 
Q 1400 384 1738 384 
Q 2144 384 2425 690 
Q 2706 997 2706 1503 
Q 2706 1984 2436 2262 
Q 2166 2541 1728 2541 
Q 1456 2541 1237 2417 
Q 1019 2294 894 2097 
L 366 2166 
L 809 4519 
L 3088 4519 
L 3088 3981 
L 1259 3981 
L 1013 2750 
Q 1425 3038 1878 3038 
Q 2478 3038 2890 2622 
Q 3303 2206 3303 1553 
Q 3303 931 2941 478 
Q 2500 -78 1738 -78 
Q 1113 -78 717 272 
Q 322 622 266 1200 
z
" transform="scale(0.015625)"/>
       </defs>
       <use xlink:href="#ArialMT-32"/>
       <use xlink:href="#ArialMT-35" transform="translate(55.615234 0)"/>
       <use xlink:href="#ArialMT-36" transform="translate(111.230469 0)"/>
      </g>
     </g>
    </g>
    <g id="xtick_6">
     <g id="line2d_11">
      <path d="M 374.466861 409.74 
L 374.466861 64.03875 
" clip-path="url(#p95a3c19faf)" style="fill: none; stroke-dasharray: 2.96,1.28; stroke-dashoffset: 0; stroke: #cccccc; stroke-opacity: 0.5; stroke-width: 0.8"/>
     </g>
     <g id="line2d_12"/>
     <g id="text_6">
      <!-- 384 -->
      <g style="fill: #262626" transform="translate(366.125455 420.397812) scale(0.1 -0.1)">
       <use xlink:href="#ArialMT-33"/>
       <use xlink:href="#ArialMT-38" transform="translate(55.615234 0)"/>
       <use xlink:href="#ArialMT-34" transform="translate(111.230469 0)"/>
      </g>
     </g>
    </g>
    <g id="xtick_7">
     <g id="line2d_13">
      <path d="M 402.822513 409.74 
L 402.822513 64.03875 
" clip-path="url(#p95a3c19faf)" style="fill: none; stroke-dasharray: 2.96,1.28; stroke-dashoffset: 0; stroke: #cccccc; stroke-opacity: 0.5; stroke-width: 0.8"/>
     </g>
     <g id="line2d_14"/>
     <g id="text_7">
      <!-- 512 -->
      <g style="fill: #262626" transform="translate(394.481107 420.397812) scale(0.1 -0.1)">
       <use xlink:href="#ArialMT-35"/>
       <use xlink:href="#ArialMT-31" transform="translate(55.615234 0)"/>
       <use xlink:href="#ArialMT-32" transform="translate(111.230469 0)"/>
      </g>
     </g>
    </g>
    <g id="xtick_8">
     <g id="line2d_15">
      <path d="M 442.78756 409.74 
L 442.78756 64.03875 
" clip-path="url(#p95a3c19faf)" style="fill: none; stroke-dasharray: 2.96,1.28; stroke-dashoffset: 0; stroke: #cccccc; stroke-opacity: 0.5; stroke-width: 0.8"/>
     </g>
     <g id="line2d_16"/>
     <g id="text_8">
      <!-- 768 -->
      <g style="fill: #262626" transform="translate(434.446153 420.397812) scale(0.1 -0.1)">
       <defs>
        <path id="ArialMT-37" d="M 303 3981 
L 303 4522 
L 3269 4522 
L 3269 4084 
Q 2831 3619 2401 2847 
Q 1972 2075 1738 1259 
Q 1569 684 1522 0 
L 944 0 
Q 953 541 1156 1306 
Q 1359 2072 1739 2783 
Q 2119 3494 2547 3981 
L 303 3981 
z
" transform="scale(0.015625)"/>
       </defs>
       <use xlink:href="#ArialMT-37"/>
       <use xlink:href="#ArialMT-36" transform="translate(55.615234 0)"/>
       <use xlink:href="#ArialMT-38" transform="translate(111.230469 0)"/>
      </g>
     </g>
    </g>
    <g id="xtick_9">
     <g id="line2d_17">
      <path d="M 471.143211 409.74 
L 471.143211 64.03875 
" clip-path="url(#p95a3c19faf)" style="fill: none; stroke-dasharray: 2.96,1.28; stroke-dashoffset: 0; stroke: #cccccc; stroke-opacity: 0.5; stroke-width: 0.8"/>
     </g>
     <g id="line2d_18"/>
     <g id="text_9">
      <!-- 1024 -->
      <g style="fill: #262626" transform="translate(460.021336 420.397812) scale(0.1 -0.1)">
       <defs>
        <path id="ArialMT-30" d="M 266 2259 
Q 266 3072 433 3567 
Q 600 4063 929 4331 
Q 1259 4600 1759 4600 
Q 2128 4600 2406 4451 
Q 2684 4303 2865 4023 
Q 3047 3744 3150 3342 
Q 3253 2941 3253 2259 
Q 3253 1453 3087 958 
Q 2922 463 2592 192 
Q 2263 -78 1759 -78 
Q 1097 -78 719 397 
Q 266 969 266 2259 
z
M 844 2259 
Q 844 1131 1108 757 
Q 1372 384 1759 384 
Q 2147 384 2411 759 
Q 2675 1134 2675 2259 
Q 2675 3391 2411 3762 
Q 2147 4134 1753 4134 
Q 1366 4134 1134 3806 
Q 844 3388 844 2259 
z
" transform="scale(0.015625)"/>
       </defs>
       <use xlink:href="#ArialMT-31"/>
       <use xlink:href="#ArialMT-30" transform="translate(55.615234 0)"/>
       <use xlink:href="#ArialMT-32" transform="translate(111.230469 0)"/>
       <use xlink:href="#ArialMT-34" transform="translate(166.845703 0)"/>
      </g>
     </g>
    </g>
    <g id="text_10">
     <!-- Vector Dimensionality (D) -->
     <g style="fill: #262626" transform="translate(199.55807 434.392969) scale(0.11 -0.11)">
      <defs>
       <path id="Arial-BoldMT-56" d="M 1634 0 
L -3 4581 
L 1000 4581 
L 2159 1191 
L 3281 4581 
L 4263 4581 
L 2622 0 
L 1634 0 
z
" transform="scale(0.015625)"/>
       <path id="Arial-BoldMT-65" d="M 2381 1056 
L 3256 909 
Q 3088 428 2723 176 
Q 2359 -75 1813 -75 
Q 947 -75 531 491 
Q 203 944 203 1634 
Q 203 2459 634 2926 
Q 1066 3394 1725 3394 
Q 2466 3394 2894 2905 
Q 3322 2416 3303 1406 
L 1103 1406 
Q 1113 1016 1316 798 
Q 1519 581 1822 581 
Q 2028 581 2168 693 
Q 2309 806 2381 1056 
z
M 2431 1944 
Q 2422 2325 2234 2523 
Q 2047 2722 1778 2722 
Q 1491 2722 1303 2513 
Q 1116 2303 1119 1944 
L 2431 1944 
z
" transform="scale(0.015625)"/>
       <path id="Arial-BoldMT-63" d="M 3353 2338 
L 2488 2181 
Q 2444 2441 2289 2572 
Q 2134 2703 1888 2703 
Q 1559 2703 1364 2476 
Q 1169 2250 1169 1719 
Q 1169 1128 1367 884 
Q 1566 641 1900 641 
Q 2150 641 2309 783 
Q 2469 925 2534 1272 
L 3397 1125 
Q 3263 531 2881 228 
Q 2500 -75 1859 -75 
Q 1131 -75 698 384 
Q 266 844 266 1656 
Q 266 2478 700 2936 
Q 1134 3394 1875 3394 
Q 2481 3394 2839 3133 
Q 3197 2872 3353 2338 
z
" transform="scale(0.015625)"/>
       <path id="Arial-BoldMT-74" d="M 1981 3319 
L 1981 2619 
L 1381 2619 
L 1381 1281 
Q 1381 875 1398 808 
Q 1416 741 1477 697 
Q 1538 653 1625 653 
Q 1747 653 1978 738 
L 2053 56 
Q 1747 -75 1359 -75 
Q 1122 -75 931 4 
Q 741 84 652 211 
Q 563 338 528 553 
Q 500 706 500 1172 
L 500 2619 
L 97 2619 
L 97 3319 
L 500 3319 
L 500 3978 
L 1381 4491 
L 1381 3319 
L 1981 3319 
z
" transform="scale(0.015625)"/>
       <path id="Arial-BoldMT-6f" d="M 256 1706 
Q 256 2144 472 2553 
Q 688 2963 1083 3178 
Q 1478 3394 1966 3394 
Q 2719 3394 3200 2905 
Q 3681 2416 3681 1669 
Q 3681 916 3195 420 
Q 2709 -75 1972 -75 
Q 1516 -75 1102 131 
Q 688 338 472 736 
Q 256 1134 256 1706 
z
M 1156 1659 
Q 1156 1166 1390 903 
Q 1625 641 1969 641 
Q 2313 641 2545 903 
Q 2778 1166 2778 1666 
Q 2778 2153 2545 2415 
Q 2313 2678 1969 2678 
Q 1625 2678 1390 2415 
Q 1156 2153 1156 1659 
z
" transform="scale(0.015625)"/>
       <path id="Arial-BoldMT-72" d="M 1300 0 
L 422 0 
L 422 3319 
L 1238 3319 
L 1238 2847 
Q 1447 3181 1614 3287 
Q 1781 3394 1994 3394 
Q 2294 3394 2572 3228 
L 2300 2463 
Q 2078 2606 1888 2606 
Q 1703 2606 1575 2504 
Q 1447 2403 1373 2137 
Q 1300 1872 1300 1025 
L 1300 0 
z
" transform="scale(0.015625)"/>
       <path id="Arial-BoldMT-20" transform="scale(0.015625)"/>
       <path id="Arial-BoldMT-44" d="M 463 4581 
L 2153 4581 
Q 2725 4581 3025 4494 
Q 3428 4375 3715 4072 
Q 4003 3769 4153 3330 
Q 4303 2891 4303 2247 
Q 4303 1681 4163 1272 
Q 3991 772 3672 463 
Q 3431 228 3022 97 
Q 2716 0 2203 0 
L 463 0 
L 463 4581 
z
M 1388 3806 
L 1388 772 
L 2078 772 
Q 2466 772 2638 816 
Q 2863 872 3011 1006 
Q 3159 1141 3253 1448 
Q 3347 1756 3347 2288 
Q 3347 2819 3253 3103 
Q 3159 3388 2990 3547 
Q 2822 3706 2563 3763 
Q 2369 3806 1803 3806 
L 1388 3806 
z
" transform="scale(0.015625)"/>
       <path id="Arial-BoldMT-69" d="M 459 3769 
L 459 4581 
L 1338 4581 
L 1338 3769 
L 459 3769 
z
M 459 0 
L 459 3319 
L 1338 3319 
L 1338 0 
L 459 0 
z
" transform="scale(0.015625)"/>
       <path id="Arial-BoldMT-6d" d="M 394 3319 
L 1203 3319 
L 1203 2866 
Q 1638 3394 2238 3394 
Q 2556 3394 2790 3262 
Q 3025 3131 3175 2866 
Q 3394 3131 3647 3262 
Q 3900 3394 4188 3394 
Q 4553 3394 4806 3245 
Q 5059 3097 5184 2809 
Q 5275 2597 5275 2122 
L 5275 0 
L 4397 0 
L 4397 1897 
Q 4397 2391 4306 2534 
Q 4184 2722 3931 2722 
Q 3747 2722 3584 2609 
Q 3422 2497 3350 2280 
Q 3278 2063 3278 1594 
L 3278 0 
L 2400 0 
L 2400 1819 
Q 2400 2303 2353 2443 
Q 2306 2584 2207 2653 
Q 2109 2722 1941 2722 
Q 1738 2722 1575 2612 
Q 1413 2503 1342 2297 
Q 1272 2091 1272 1613 
L 1272 0 
L 394 0 
L 394 3319 
z
" transform="scale(0.015625)"/>
       <path id="Arial-BoldMT-6e" d="M 3478 0 
L 2600 0 
L 2600 1694 
Q 2600 2231 2544 2389 
Q 2488 2547 2361 2634 
Q 2234 2722 2056 2722 
Q 1828 2722 1647 2597 
Q 1466 2472 1398 2265 
Q 1331 2059 1331 1503 
L 1331 0 
L 453 0 
L 453 3319 
L 1269 3319 
L 1269 2831 
Q 1703 3394 2363 3394 
Q 2653 3394 2893 3289 
Q 3134 3184 3257 3021 
Q 3381 2859 3429 2653 
Q 3478 2447 3478 2063 
L 3478 0 
z
" transform="scale(0.015625)"/>
       <path id="Arial-BoldMT-73" d="M 150 947 
L 1031 1081 
Q 1088 825 1259 692 
Q 1431 559 1741 559 
Q 2081 559 2253 684 
Q 2369 772 2369 919 
Q 2369 1019 2306 1084 
Q 2241 1147 2013 1200 
Q 950 1434 666 1628 
Q 272 1897 272 2375 
Q 272 2806 612 3100 
Q 953 3394 1669 3394 
Q 2350 3394 2681 3172 
Q 3013 2950 3138 2516 
L 2309 2363 
Q 2256 2556 2107 2659 
Q 1959 2763 1684 2763 
Q 1338 2763 1188 2666 
Q 1088 2597 1088 2488 
Q 1088 2394 1175 2328 
Q 1294 2241 1995 2081 
Q 2697 1922 2975 1691 
Q 3250 1456 3250 1038 
Q 3250 581 2869 253 
Q 2488 -75 1741 -75 
Q 1063 -75 667 200 
Q 272 475 150 947 
z
" transform="scale(0.015625)"/>
       <path id="Arial-BoldMT-61" d="M 1116 2306 
L 319 2450 
Q 453 2931 781 3162 
Q 1109 3394 1756 3394 
Q 2344 3394 2631 3255 
Q 2919 3116 3036 2902 
Q 3153 2688 3153 2116 
L 3144 1091 
Q 3144 653 3186 445 
Q 3228 238 3344 0 
L 2475 0 
Q 2441 88 2391 259 
Q 2369 338 2359 363 
Q 2134 144 1878 34 
Q 1622 -75 1331 -75 
Q 819 -75 523 203 
Q 228 481 228 906 
Q 228 1188 362 1408 
Q 497 1628 739 1745 
Q 981 1863 1438 1950 
Q 2053 2066 2291 2166 
L 2291 2253 
Q 2291 2506 2166 2614 
Q 2041 2722 1694 2722 
Q 1459 2722 1328 2630 
Q 1197 2538 1116 2306 
z
M 2291 1594 
Q 2122 1538 1756 1459 
Q 1391 1381 1278 1306 
Q 1106 1184 1106 997 
Q 1106 813 1243 678 
Q 1381 544 1594 544 
Q 1831 544 2047 700 
Q 2206 819 2256 991 
Q 2291 1103 2291 1419 
L 2291 1594 
z
" transform="scale(0.015625)"/>
       <path id="Arial-BoldMT-6c" d="M 459 0 
L 459 4581 
L 1338 4581 
L 1338 0 
L 459 0 
z
" transform="scale(0.015625)"/>
       <path id="Arial-BoldMT-79" d="M 44 3319 
L 978 3319 
L 1772 963 
L 2547 3319 
L 3456 3319 
L 2284 125 
L 2075 -453 
Q 1959 -744 1854 -897 
Q 1750 -1050 1614 -1145 
Q 1478 -1241 1279 -1294 
Q 1081 -1347 831 -1347 
Q 578 -1347 334 -1294 
L 256 -606 
Q 463 -647 628 -647 
Q 934 -647 1081 -467 
Q 1228 -288 1306 -9 
L 44 3319 
z
" transform="scale(0.015625)"/>
       <path id="Arial-BoldMT-28" d="M 1916 -1347 
L 1313 -1347 
Q 834 -625 584 153 
Q 334 931 334 1659 
Q 334 2563 644 3369 
Q 913 4069 1325 4659 
L 1925 4659 
Q 1497 3713 1336 3048 
Q 1175 2384 1175 1641 
Q 1175 1128 1270 590 
Q 1366 53 1531 -431 
Q 1641 -750 1916 -1347 
z
" transform="scale(0.015625)"/>
       <path id="Arial-BoldMT-29" d="M 216 -1347 
Q 475 -791 581 -494 
Q 688 -197 778 190 
Q 869 578 912 926 
Q 956 1275 956 1641 
Q 956 2384 797 3048 
Q 638 3713 209 4659 
L 806 4659 
Q 1278 3988 1539 3234 
Q 1800 2481 1800 1706 
Q 1800 1053 1594 306 
Q 1359 -531 822 -1347 
L 216 -1347 
z
" transform="scale(0.015625)"/>
      </defs>
      <use xlink:href="#Arial-BoldMT-56"/>
      <use xlink:href="#Arial-BoldMT-65" transform="translate(61.199219 0)"/>
      <use xlink:href="#Arial-BoldMT-63" transform="translate(116.814453 0)"/>
      <use xlink:href="#Arial-BoldMT-74" transform="translate(172.429688 0)"/>
      <use xlink:href="#Arial-BoldMT-6f" transform="translate(205.730469 0)"/>
      <use xlink:href="#Arial-BoldMT-72" transform="translate(266.814453 0)"/>
      <use xlink:href="#Arial-BoldMT-20" transform="translate(305.730469 0)"/>
      <use xlink:href="#Arial-BoldMT-44" transform="translate(333.513672 0)"/>
      <use xlink:href="#Arial-BoldMT-69" transform="translate(405.730469 0)"/>
      <use xlink:href="#Arial-BoldMT-6d" transform="translate(433.513672 0)"/>
      <use xlink:href="#Arial-BoldMT-65" transform="translate(522.429688 0)"/>
      <use xlink:href="#Arial-BoldMT-6e" transform="translate(578.044922 0)"/>
      <use xlink:href="#Arial-BoldMT-73" transform="translate(639.128906 0)"/>
      <use xlink:href="#Arial-BoldMT-69" transform="translate(694.744141 0)"/>
      <use xlink:href="#Arial-BoldMT-6f" transform="translate(722.527344 0)"/>
      <use xlink:href="#Arial-BoldMT-6e" transform="translate(783.611328 0)"/>
      <use xlink:href="#Arial-BoldMT-61" transform="translate(844.695312 0)"/>
      <use xlink:href="#Arial-BoldMT-6c" transform="translate(900.310547 0)"/>
      <use xlink:href="#Arial-BoldMT-69" transform="translate(928.09375 0)"/>
      <use xlink:href="#Arial-BoldMT-74" transform="translate(955.876953 0)"/>
      <use xlink:href="#Arial-BoldMT-79" transform="translate(989.177734 0)"/>
      <use xlink:href="#Arial-BoldMT-20" transform="translate(1044.792969 0)"/>
      <use xlink:href="#Arial-BoldMT-28" transform="translate(1072.576172 0)"/>
      <use xlink:href="#Arial-BoldMT-44" transform="translate(1105.876953 0)"/>
      <use xlink:href="#Arial-BoldMT-29" transform="translate(1178.09375 0)"/>
     </g>
    </g>
   </g>
   <g id="matplotlib.axis_2">
    <g id="ytick_1">
     <g id="line2d_19">
      <path d="M 40.722813 267.141787 
L 491.639421 267.141787 
" clip-path="url(#p95a3c19faf)" style="fill: none; stroke-dasharray: 2.96,1.28; stroke-dashoffset: 0; stroke: #cccccc; stroke-opacity: 0.5; stroke-width: 0.8"/>
     </g>
     <g id="line2d_20"/>
     <g id="text_11">
      <!-- $\mathdefault{10^{3}}$ -->
      <g style="fill: #262626" transform="translate(21.522813 272.298037) scale(0.1 -0.1)">
       <use xlink:href="#ArialMT-31" transform="translate(0 0.99375)"/>
       <use xlink:href="#ArialMT-30" transform="translate(55.615234 0.99375)"/>
       <use xlink:href="#ArialMT-33" transform="translate(112.972813 70.6875) scale(0.7)"/>
      </g>
     </g>
    </g>
    <g id="ytick_2">
     <g id="line2d_21">
      <path d="M 40.722813 65.31875 
L 491.639421 65.31875 
" clip-path="url(#p95a3c19faf)" style="fill: none; stroke-dasharray: 2.96,1.28; stroke-dashoffset: 0; stroke: #cccccc; stroke-opacity: 0.5; stroke-width: 0.8"/>
     </g>
     <g id="line2d_22"/>
     <g id="text_12">
      <!-- $\mathdefault{10^{4}}$ -->
      <g style="fill: #262626" transform="translate(21.522813 70.425) scale(0.1 -0.1)">
       <use xlink:href="#ArialMT-31" transform="translate(0 0.201563)"/>
       <use xlink:href="#ArialMT-30" transform="translate(55.615234 0.201563)"/>
       <use xlink:href="#ArialMT-34" transform="translate(112.972813 69.895313) scale(0.7)"/>
      </g>
     </g>
    </g>
    <g id="ytick_3">
     <g id="line2d_23">
      <path d="M 40.722813 408.210036 
L 491.639421 408.210036 
" clip-path="url(#p95a3c19faf)" style="fill: none; stroke-dasharray: 2.96,1.28; stroke-dashoffset: 0; stroke: #cccccc; stroke-opacity: 0.5; stroke-width: 0.8"/>
     </g>
     <g id="line2d_24"/>
    </g>
    <g id="ytick_4">
     <g id="line2d_25">
      <path d="M 40.722813 372.670763 
L 491.639421 372.670763 
" clip-path="url(#p95a3c19faf)" style="fill: none; stroke-dasharray: 2.96,1.28; stroke-dashoffset: 0; stroke: #cccccc; stroke-opacity: 0.5; stroke-width: 0.8"/>
     </g>
     <g id="line2d_26"/>
    </g>
    <g id="ytick_5">
     <g id="line2d_27">
      <path d="M 40.722813 347.455248 
L 491.639421 347.455248 
" clip-path="url(#p95a3c19faf)" style="fill: none; stroke-dasharray: 2.96,1.28; stroke-dashoffset: 0; stroke: #cccccc; stroke-opacity: 0.5; stroke-width: 0.8"/>
     </g>
     <g id="line2d_28"/>
    </g>
    <g id="ytick_6">
     <g id="line2d_29">
      <path d="M 40.722813 327.896575 
L 491.639421 327.896575 
" clip-path="url(#p95a3c19faf)" style="fill: none; stroke-dasharray: 2.96,1.28; stroke-dashoffset: 0; stroke: #cccccc; stroke-opacity: 0.5; stroke-width: 0.8"/>
     </g>
     <g id="line2d_30"/>
    </g>
    <g id="ytick_7">
     <g id="line2d_31">
      <path d="M 40.722813 311.915975 
L 491.639421 311.915975 
" clip-path="url(#p95a3c19faf)" style="fill: none; stroke-dasharray: 2.96,1.28; stroke-dashoffset: 0; stroke: #cccccc; stroke-opacity: 0.5; stroke-width: 0.8"/>
     </g>
     <g id="line2d_32"/>
    </g>
    <g id="ytick_8">
     <g id="line2d_33">
      <path d="M 40.722813 298.404571 
L 491.639421 298.404571 
" clip-path="url(#p95a3c19faf)" style="fill: none; stroke-dasharray: 2.96,1.28; stroke-dashoffset: 0; stroke: #cccccc; stroke-opacity: 0.5; stroke-width: 0.8"/>
     </g>
     <g id="line2d_34"/>
    </g>
    <g id="ytick_9">
     <g id="line2d_35">
      <path d="M 40.722813 286.70046 
L 491.639421 286.70046 
" clip-path="url(#p95a3c19faf)" style="fill: none; stroke-dasharray: 2.96,1.28; stroke-dashoffset: 0; stroke: #cccccc; stroke-opacity: 0.5; stroke-width: 0.8"/>
     </g>
     <g id="line2d_36"/>
    </g>
    <g id="ytick_10">
     <g id="line2d_37">
      <path d="M 40.722813 276.376703 
L 491.639421 276.376703 
" clip-path="url(#p95a3c19faf)" style="fill: none; stroke-dasharray: 2.96,1.28; stroke-dashoffset: 0; stroke: #cccccc; stroke-opacity: 0.5; stroke-width: 0.8"/>
     </g>
     <g id="line2d_38"/>
    </g>
    <g id="ytick_11">
     <g id="line2d_39">
      <path d="M 40.722813 206.386999 
L 491.639421 206.386999 
" clip-path="url(#p95a3c19faf)" style="fill: none; stroke-dasharray: 2.96,1.28; stroke-dashoffset: 0; stroke: #cccccc; stroke-opacity: 0.5; stroke-width: 0.8"/>
     </g>
     <g id="line2d_40"/>
    </g>
    <g id="ytick_12">
     <g id="line2d_41">
      <path d="M 40.722813 170.847726 
L 491.639421 170.847726 
" clip-path="url(#p95a3c19faf)" style="fill: none; stroke-dasharray: 2.96,1.28; stroke-dashoffset: 0; stroke: #cccccc; stroke-opacity: 0.5; stroke-width: 0.8"/>
     </g>
     <g id="line2d_42"/>
    </g>
    <g id="ytick_13">
     <g id="line2d_43">
      <path d="M 40.722813 145.632211 
L 491.639421 145.632211 
" clip-path="url(#p95a3c19faf)" style="fill: none; stroke-dasharray: 2.96,1.28; stroke-dashoffset: 0; stroke: #cccccc; stroke-opacity: 0.5; stroke-width: 0.8"/>
     </g>
     <g id="line2d_44"/>
    </g>
    <g id="ytick_14">
     <g id="line2d_45">
      <path d="M 40.722813 126.073538 
L 491.639421 126.073538 
" clip-path="url(#p95a3c19faf)" style="fill: none; stroke-dasharray: 2.96,1.28; stroke-dashoffset: 0; stroke: #cccccc; stroke-opacity: 0.5; stroke-width: 0.8"/>
     </g>
     <g id="line2d_46"/>
    </g>
    <g id="ytick_15">
     <g id="line2d_47">
      <path d="M 40.722813 110.092938 
L 491.639421 110.092938 
" clip-path="url(#p95a3c19faf)" style="fill: none; stroke-dasharray: 2.96,1.28; stroke-dashoffset: 0; stroke: #cccccc; stroke-opacity: 0.5; stroke-width: 0.8"/>
     </g>
     <g id="line2d_48"/>
    </g>
    <g id="ytick_16">
     <g id="line2d_49">
      <path d="M 40.722813 96.581534 
L 491.639421 96.581534 
" clip-path="url(#p95a3c19faf)" style="fill: none; stroke-dasharray: 2.96,1.28; stroke-dashoffset: 0; stroke: #cccccc; stroke-opacity: 0.5; stroke-width: 0.8"/>
     </g>
     <g id="line2d_50"/>
    </g>
    <g id="ytick_17">
     <g id="line2d_51">
      <path d="M 40.722813 84.877423 
L 491.639421 84.877423 
" clip-path="url(#p95a3c19faf)" style="fill: none; stroke-dasharray: 2.96,1.28; stroke-dashoffset: 0; stroke: #cccccc; stroke-opacity: 0.5; stroke-width: 0.8"/>
     </g>
     <g id="line2d_52"/>
    </g>
    <g id="ytick_18">
     <g id="line2d_53">
      <path d="M 40.722813 74.553665 
L 491.639421 74.553665 
" clip-path="url(#p95a3c19faf)" style="fill: none; stroke-dasharray: 2.96,1.28; stroke-dashoffset: 0; stroke: #cccccc; stroke-opacity: 0.5; stroke-width: 0.8"/>
     </g>
     <g id="line2d_54"/>
    </g>
    <g id="text_13">
     <!-- Latency (us) -->
     <g style="fill: #262626" transform="translate(15.207656 269.281797) rotate(-90) scale(0.11 -0.11)">
      <defs>
       <path id="Arial-BoldMT-4c" d="M 491 0 
L 491 4544 
L 1416 4544 
L 1416 772 
L 3716 772 
L 3716 0 
L 491 0 
z
" transform="scale(0.015625)"/>
       <path id="Arial-BoldMT-75" d="M 2644 0 
L 2644 497 
Q 2463 231 2167 78 
Q 1872 -75 1544 -75 
Q 1209 -75 943 72 
Q 678 219 559 484 
Q 441 750 441 1219 
L 441 3319 
L 1319 3319 
L 1319 1794 
Q 1319 1094 1367 936 
Q 1416 778 1544 686 
Q 1672 594 1869 594 
Q 2094 594 2272 717 
Q 2450 841 2515 1023 
Q 2581 1206 2581 1919 
L 2581 3319 
L 3459 3319 
L 3459 0 
L 2644 0 
z
" transform="scale(0.015625)"/>
      </defs>
      <use xlink:href="#Arial-BoldMT-4c"/>
      <use xlink:href="#Arial-BoldMT-61" transform="translate(61.083984 0)"/>
      <use xlink:href="#Arial-BoldMT-74" transform="translate(116.699219 0)"/>
      <use xlink:href="#Arial-BoldMT-65" transform="translate(150 0)"/>
      <use xlink:href="#Arial-BoldMT-6e" transform="translate(205.615234 0)"/>
      <use xlink:href="#Arial-BoldMT-63" transform="translate(266.699219 0)"/>
      <use xlink:href="#Arial-BoldMT-79" transform="translate(322.314453 0)"/>
      <use xlink:href="#Arial-BoldMT-20" transform="translate(377.929688 0)"/>
      <use xlink:href="#Arial-BoldMT-28" transform="translate(405.712891 0)"/>
      <use xlink:href="#Arial-BoldMT-75" transform="translate(439.013672 0)"/>
      <use xlink:href="#Arial-BoldMT-73" transform="translate(500.097656 0)"/>
      <use xlink:href="#Arial-BoldMT-29" transform="translate(555.712891 0)"/>
     </g>
    </g>
   </g>
   <g id="line2d_55">
    <path d="M 61.219022 364.348645 
L 129.53972 368.695307 
L 197.860418 362.043676 
L 266.181117 352.471664 
L 334.501815 335.363321 
L 374.466861 320.792905 
L 402.822513 275.031416 
L 442.78756 281.326885 
L 471.143211 250.186402 
" clip-path="url(#p95a3c19faf)" style="fill: none; stroke: #2e7d32; stroke-width: 2.5; stroke-linecap: round"/>
    <defs>
     <path id="mdc29f09215" d="M 0 3 
C 0.795609 3 1.55874 2.683901 2.12132 2.12132 
C 2.683901 1.55874 3 0.795609 3 0 
C 3 -0.795609 2.683901 -1.55874 2.12132 -2.12132 
C 1.55874 -2.683901 0.795609 -3 0 -3 
C -0.795609 -3 -1.55874 -2.683901 -2.12132 -2.12132 
C -2.683901 -1.55874 -3 -0.795609 -3 0 
C -3 0.795609 -2.683901 1.55874 -2.12132 2.12132 
C -1.55874 2.683901 -0.795609 3 0 3 
z
" style="stroke: #2e7d32"/>
    </defs>
    <g clip-path="url(#p95a3c19faf)">
     <use xlink:href="#mdc29f09215" x="61.219022" y="364.348645" style="fill: #2e7d32; stroke: #2e7d32"/>
     <use xlink:href="#mdc29f09215" x="129.53972" y="368.695307" style="fill: #2e7d32; stroke: #2e7d32"/>
     <use xlink:href="#mdc29f09215" x="197.860418" y="362.043676" style="fill: #2e7d32; stroke: #2e7d32"/>
     <use xlink:href="#mdc29f09215" x="266.181117" y="352.471664" style="fill: #2e7d32; stroke: #2e7d32"/>
     <use xlink:href="#mdc29f09215" x="334.501815" y="335.363321" style="fill: #2e7d32; stroke: #2e7d32"/>
     <use xlink:href="#mdc29f09215" x="374.466861" y="320.792905" style="fill: #2e7d32; stroke: #2e7d32"/>
     <use xlink:href="#mdc29f09215" x="402.822513" y="275.031416" style="fill: #2e7d32; stroke: #2e7d32"/>
     <use xlink:href="#mdc29f09215" x="442.78756" y="281.326885" style="fill: #2e7d32; stroke: #2e7d32"/>
     <use xlink:href="#mdc29f09215" x="471.143211" y="250.186402" style="fill: #2e7d32; stroke: #2e7d32"/>
    </g>
   </g>
   <g id="line2d_56">
    <path d="M 61.219022 394.026307 
L 129.53972 367.806348 
L 197.860418 328.277806 
L 266.181117 267.229481 
L 334.501815 205.828258 
L 374.466861 164.92778 
L 402.822513 103.940493 
L 442.78756 113.51077 
L 471.143211 79.752443 
" clip-path="url(#p95a3c19faf)" style="fill: none; stroke: #1565c0; stroke-width: 2.5; stroke-linecap: round"/>
    <defs>
     <path id="mc86936d338" d="M -3 3 
L 3 3 
L 3 -3 
L -3 -3 
z
" style="stroke: #1565c0; stroke-linejoin: miter"/>
    </defs>
    <g clip-path="url(#p95a3c19faf)">
     <use xlink:href="#mc86936d338" x="61.219022" y="394.026307" style="fill: #1565c0; stroke: #1565c0; stroke-linejoin: miter"/>
     <use xlink:href="#mc86936d338" x="129.53972" y="367.806348" style="fill: #1565c0; stroke: #1565c0; stroke-linejoin: miter"/>
     <use xlink:href="#mc86936d338" x="197.860418" y="328.277806" style="fill: #1565c0; stroke: #1565c0; stroke-linejoin: miter"/>
     <use xlink:href="#mc86936d338" x="266.181117" y="267.229481" style="fill: #1565c0; stroke: #1565c0; stroke-linejoin: miter"/>
     <use xlink:href="#mc86936d338" x="334.501815" y="205.828258" style="fill: #1565c0; stroke: #1565c0; stroke-linejoin: miter"/>
     <use xlink:href="#mc86936d338" x="374.466861" y="164.92778" style="fill: #1565c0; stroke: #1565c0; stroke-linejoin: miter"/>
     <use xlink:href="#mc86936d338" x="402.822513" y="103.940493" style="fill: #1565c0; stroke: #1565c0; stroke-linejoin: miter"/>
     <use xlink:href="#mc86936d338" x="442.78756" y="113.51077" style="fill: #1565c0; stroke: #1565c0; stroke-linejoin: miter"/>
     <use xlink:href="#mc86936d338" x="471.143211" y="79.752443" style="fill: #1565c0; stroke: #1565c0; stroke-linejoin: miter"/>
    </g>
   </g>
   <g id="patch_3">
    <path d="M 40.722813 409.74 
L 40.722813 64.03875 
" style="fill: none; stroke: #cccccc; stroke-linejoin: miter; stroke-linecap: square"/>
   </g>
   <g id="patch_4">
    <path d="M 491.639421 409.74 
L 491.639421 64.03875 
" style="fill: none; stroke: #cccccc; stroke-linejoin: miter; stroke-linecap: square"/>
   </g>
   <g id="patch_5">
    <path d="M 40.722813 409.74 
L 491.639421 409.74 
" style="fill: none; stroke: #cccccc; stroke-linejoin: miter; stroke-linecap: square"/>
   </g>
   <g id="patch_6">
    <path d="M 40.722813 64.03875 
L 491.639421 64.03875 
" style="fill: none; stroke: #cccccc; stroke-linejoin: miter; stroke-linecap: square"/>
   </g>
   <g id="text_14">
    <!-- Single-Query Latency (lower is better) -->
    <g style="fill: #262626" transform="translate(158.162367 58.03875) scale(0.12 -0.12)">
     <defs>
      <path id="Arial-BoldMT-53" d="M 231 1491 
L 1131 1578 
Q 1213 1125 1461 912 
Q 1709 700 2131 700 
Q 2578 700 2804 889 
Q 3031 1078 3031 1331 
Q 3031 1494 2936 1608 
Q 2841 1722 2603 1806 
Q 2441 1863 1863 2006 
Q 1119 2191 819 2459 
Q 397 2838 397 3381 
Q 397 3731 595 4036 
Q 794 4341 1167 4500 
Q 1541 4659 2069 4659 
Q 2931 4659 3367 4281 
Q 3803 3903 3825 3272 
L 2900 3231 
Q 2841 3584 2645 3739 
Q 2450 3894 2059 3894 
Q 1656 3894 1428 3728 
Q 1281 3622 1281 3444 
Q 1281 3281 1419 3166 
Q 1594 3019 2269 2859 
Q 2944 2700 3267 2529 
Q 3591 2359 3773 2064 
Q 3956 1769 3956 1334 
Q 3956 941 3737 597 
Q 3519 253 3119 86 
Q 2719 -81 2122 -81 
Q 1253 -81 787 320 
Q 322 722 231 1491 
z
" transform="scale(0.015625)"/>
      <path id="Arial-BoldMT-67" d="M 378 -219 
L 1381 -341 
Q 1406 -516 1497 -581 
Q 1622 -675 1891 -675 
Q 2234 -675 2406 -572 
Q 2522 -503 2581 -350 
Q 2622 -241 2622 53 
L 2622 538 
Q 2228 0 1628 0 
Q 959 0 569 566 
Q 263 1013 263 1678 
Q 263 2513 664 2953 
Q 1066 3394 1663 3394 
Q 2278 3394 2678 2853 
L 2678 3319 
L 3500 3319 
L 3500 341 
Q 3500 -247 3403 -537 
Q 3306 -828 3131 -993 
Q 2956 -1159 2664 -1253 
Q 2372 -1347 1925 -1347 
Q 1081 -1347 728 -1058 
Q 375 -769 375 -325 
Q 375 -281 378 -219 
z
M 1163 1728 
Q 1163 1200 1367 954 
Q 1572 709 1872 709 
Q 2194 709 2416 961 
Q 2638 1213 2638 1706 
Q 2638 2222 2425 2472 
Q 2213 2722 1888 2722 
Q 1572 2722 1367 2476 
Q 1163 2231 1163 1728 
z
" transform="scale(0.015625)"/>
      <path id="Arial-BoldMT-2d" d="M 359 1222 
L 359 2100 
L 2084 2100 
L 2084 1222 
L 359 1222 
z
" transform="scale(0.015625)"/>
      <path id="Arial-BoldMT-51" d="M 4153 581 
Q 4494 338 4894 194 
L 4553 -459 
Q 4344 -397 4144 -288 
Q 4100 -266 3528 119 
Q 3078 -78 2531 -78 
Q 1475 -78 876 544 
Q 278 1166 278 2291 
Q 278 3413 878 4036 
Q 1478 4659 2506 4659 
Q 3525 4659 4122 4036 
Q 4719 3413 4719 2291 
Q 4719 1697 4553 1247 
Q 4428 903 4153 581 
z
M 3409 1103 
Q 3588 1313 3677 1609 
Q 3766 1906 3766 2291 
Q 3766 3084 3416 3476 
Q 3066 3869 2500 3869 
Q 1934 3869 1582 3475 
Q 1231 3081 1231 2291 
Q 1231 1488 1582 1089 
Q 1934 691 2472 691 
Q 2672 691 2850 756 
Q 2569 941 2278 1044 
L 2538 1572 
Q 2994 1416 3409 1103 
z
" transform="scale(0.015625)"/>
      <path id="Arial-BoldMT-77" d="M 1078 0 
L 28 3319 
L 881 3319 
L 1503 1144 
L 2075 3319 
L 2922 3319 
L 3475 1144 
L 4109 3319 
L 4975 3319 
L 3909 0 
L 3066 0 
L 2494 2134 
L 1931 0 
L 1078 0 
z
" transform="scale(0.015625)"/>
      <path id="Arial-BoldMT-62" d="M 422 0 
L 422 4581 
L 1300 4581 
L 1300 2931 
Q 1706 3394 2263 3394 
Q 2869 3394 3266 2955 
Q 3663 2516 3663 1694 
Q 3663 844 3258 384 
Q 2853 -75 2275 -75 
Q 1991 -75 1714 67 
Q 1438 209 1238 488 
L 1238 0 
L 422 0 
z
M 1294 1731 
Q 1294 1216 1456 969 
Q 1684 619 2063 619 
Q 2353 619 2558 867 
Q 2763 1116 2763 1650 
Q 2763 2219 2556 2470 
Q 2350 2722 2028 2722 
Q 1713 2722 1503 2476 
Q 1294 2231 1294 1731 
z
" transform="scale(0.015625)"/>
     </defs>
     <use xlink:href="#Arial-BoldMT-53"/>
     <use xlink:href="#Arial-BoldMT-69" transform="translate(66.699219 0)"/>
     <use xlink:href="#Arial-BoldMT-6e" transform="translate(94.482422 0)"/>
     <use xlink:href="#Arial-BoldMT-67" transform="translate(155.566406 0)"/>
     <use xlink:href="#Arial-BoldMT-6c" transform="translate(216.650391 0)"/>
     <use xlink:href="#Arial-BoldMT-65" transform="translate(244.433594 0)"/>
     <use xlink:href="#Arial-BoldMT-2d" transform="translate(300.048828 0)"/>
     <use xlink:href="#Arial-BoldMT-51" transform="translate(333.349609 0)"/>
     <use xlink:href="#Arial-BoldMT-75" transform="translate(411.132812 0)"/>
     <use xlink:href="#Arial-BoldMT-65" transform="translate(472.216797 0)"/>
     <use xlink:href="#Arial-BoldMT-72" transform="translate(527.832031 0)"/>
     <use xlink:href="#Arial-BoldMT-79" transform="translate(566.748047 0)"/>
     <use xlink:href="#Arial-BoldMT-20" transform="translate(622.363281 0)"/>
     <use xlink:href="#Arial-BoldMT-4c" transform="translate(650.146484 0)"/>
     <use xlink:href="#Arial-BoldMT-61" transform="translate(711.230469 0)"/>
     <use xlink:href="#Arial-BoldMT-74" transform="translate(766.845703 0)"/>
     <use xlink:href="#Arial-BoldMT-65" transform="translate(800.146484 0)"/>
     <use xlink:href="#Arial-BoldMT-6e" transform="translate(855.761719 0)"/>
     <use xlink:href="#Arial-BoldMT-63" transform="translate(916.845703 0)"/>
     <use xlink:href="#Arial-BoldMT-79" transform="translate(972.460938 0)"/>
     <use xlink:href="#Arial-BoldMT-20" transform="translate(1028.076172 0)"/>
     <use xlink:href="#Arial-BoldMT-28" transform="translate(1055.859375 0)"/>
     <use xlink:href="#Arial-BoldMT-6c" transform="translate(1089.160156 0)"/>
     <use xlink:href="#Arial-BoldMT-6f" transform="translate(1116.943359 0)"/>
     <use xlink:href="#Arial-BoldMT-77" transform="translate(1178.027344 0)"/>
     <use xlink:href="#Arial-BoldMT-65" transform="translate(1255.810547 0)"/>
     <use xlink:href="#Arial-BoldMT-72" transform="translate(1311.425781 0)"/>
     <use xlink:href="#Arial-BoldMT-20" transform="translate(1350.341797 0)"/>
     <use xlink:href="#Arial-BoldMT-69" transform="translate(1378.125 0)"/>
     <use xlink:href="#Arial-BoldMT-73" transform="translate(1405.908203 0)"/>
     <use xlink:href="#Arial-BoldMT-20" transform="translate(1461.523438 0)"/>
     <use xlink:href="#Arial-BoldMT-62" transform="translate(1489.306641 0)"/>
     <use xlink:href="#Arial-BoldMT-65" transform="translate(1550.390625 0)"/>
     <use xlink:href="#Arial-BoldMT-74" transform="translate(1606.005859 0)"/>
     <use xlink:href="#Arial-BoldMT-74" transform="translate(1639.306641 0)"/>
     <use xlink:href="#Arial-BoldMT-65" transform="translate(1672.607422 0)"/>
     <use xlink:href="#Arial-BoldMT-72" transform="translate(1728.222656 0)"/>
     <use xlink:href="#Arial-BoldMT-29" transform="translate(1767.138672 0)"/>
    </g>
   </g>
   <g id="legend_1">
    <g id="patch_7">
     <path d="M 47.022813 96.700312 
L 131.347187 96.700312 
Q 133.147188 96.700312 133.147188 94.900312 
L 133.147188 70.33875 
Q 133.147188 68.53875 131.347187 68.53875 
L 47.022813 68.53875 
Q 45.222813 68.53875 45.222813 70.33875 
L 45.222813 94.900312 
Q 45.222813 96.700312 47.022813 96.700312 
z
" style="fill: #ffffff; opacity: 0.8; stroke: #cccccc; stroke-linejoin: miter"/>
    </g>
    <g id="line2d_57">
     <path d="M 48.822813 75.430781 
L 57.822813 75.430781 
L 66.822812 75.430781 
" style="fill: none; stroke: #2e7d32; stroke-width: 2.5; stroke-linecap: round"/>
     <g>
      <use xlink:href="#mdc29f09215" x="57.822813" y="75.430781" style="fill: #2e7d32; stroke: #2e7d32"/>
     </g>
    </g>
    <g id="text_15">
     <!-- Pithos -->
     <g style="fill: #262626" transform="translate(74.022813 78.580781) scale(0.09 -0.09)">
      <defs>
       <path id="ArialMT-50" d="M 494 0 
L 494 4581 
L 2222 4581 
Q 2678 4581 2919 4538 
Q 3256 4481 3484 4323 
Q 3713 4166 3852 3881 
Q 3991 3597 3991 3256 
Q 3991 2672 3619 2267 
Q 3247 1863 2275 1863 
L 1100 1863 
L 1100 0 
L 494 0 
z
M 1100 2403 
L 2284 2403 
Q 2872 2403 3119 2622 
Q 3366 2841 3366 3238 
Q 3366 3525 3220 3729 
Q 3075 3934 2838 4000 
Q 2684 4041 2272 4041 
L 1100 4041 
L 1100 2403 
z
" transform="scale(0.015625)"/>
       <path id="ArialMT-69" d="M 425 3934 
L 425 4581 
L 988 4581 
L 988 3934 
L 425 3934 
z
M 425 0 
L 425 3319 
L 988 3319 
L 988 0 
L 425 0 
z
" transform="scale(0.015625)"/>
       <path id="ArialMT-74" d="M 1650 503 
L 1731 6 
Q 1494 -44 1306 -44 
Q 1000 -44 831 53 
Q 663 150 594 308 
Q 525 466 525 972 
L 525 2881 
L 113 2881 
L 113 3319 
L 525 3319 
L 525 4141 
L 1084 4478 
L 1084 3319 
L 1650 3319 
L 1650 2881 
L 1084 2881 
L 1084 941 
Q 1084 700 1114 631 
Q 1144 563 1211 522 
Q 1278 481 1403 481 
Q 1497 481 1650 503 
z
" transform="scale(0.015625)"/>
       <path id="ArialMT-68" d="M 422 0 
L 422 4581 
L 984 4581 
L 984 2938 
Q 1378 3394 1978 3394 
Q 2347 3394 2619 3248 
Q 2891 3103 3008 2847 
Q 3125 2591 3125 2103 
L 3125 0 
L 2563 0 
L 2563 2103 
Q 2563 2525 2380 2717 
Q 2197 2909 1863 2909 
Q 1613 2909 1392 2779 
Q 1172 2650 1078 2428 
Q 984 2206 984 1816 
L 984 0 
L 422 0 
z
" transform="scale(0.015625)"/>
       <path id="ArialMT-6f" d="M 213 1659 
Q 213 2581 725 3025 
Q 1153 3394 1769 3394 
Q 2453 3394 2887 2945 
Q 3322 2497 3322 1706 
Q 3322 1066 3130 698 
Q 2938 331 2570 128 
Q 2203 -75 1769 -75 
Q 1072 -75 642 372 
Q 213 819 213 1659 
z
M 791 1659 
Q 791 1022 1069 705 
Q 1347 388 1769 388 
Q 2188 388 2466 706 
Q 2744 1025 2744 1678 
Q 2744 2294 2464 2611 
Q 2184 2928 1769 2928 
Q 1347 2928 1069 2612 
Q 791 2297 791 1659 
z
" transform="scale(0.015625)"/>
       <path id="ArialMT-73" d="M 197 991 
L 753 1078 
Q 800 744 1014 566 
Q 1228 388 1613 388 
Q 2000 388 2187 545 
Q 2375 703 2375 916 
Q 2375 1106 2209 1216 
Q 2094 1291 1634 1406 
Q 1016 1563 777 1677 
Q 538 1791 414 1992 
Q 291 2194 291 2438 
Q 291 2659 392 2848 
Q 494 3038 669 3163 
Q 800 3259 1026 3326 
Q 1253 3394 1513 3394 
Q 1903 3394 2198 3281 
Q 2494 3169 2634 2976 
Q 2775 2784 2828 2463 
L 2278 2388 
Q 2241 2644 2061 2787 
Q 1881 2931 1553 2931 
Q 1166 2931 1000 2803 
Q 834 2675 834 2503 
Q 834 2394 903 2306 
Q 972 2216 1119 2156 
Q 1203 2125 1616 2013 
Q 2213 1853 2448 1751 
Q 2684 1650 2818 1456 
Q 2953 1263 2953 975 
Q 2953 694 2789 445 
Q 2625 197 2315 61 
Q 2006 -75 1616 -75 
Q 969 -75 630 194 
Q 291 463 197 991 
z
" transform="scale(0.015625)"/>
      </defs>
      <use xlink:href="#ArialMT-50"/>
      <use xlink:href="#ArialMT-69" transform="translate(66.699219 0)"/>
      <use xlink:href="#ArialMT-74" transform="translate(88.916016 0)"/>
      <use xlink:href="#ArialMT-68" transform="translate(116.699219 0)"/>
      <use xlink:href="#ArialMT-6f" transform="translate(172.314453 0)"/>
      <use xlink:href="#ArialMT-73" transform="translate(227.929688 0)"/>
     </g>
    </g>
    <g id="line2d_58">
     <path d="M 48.822813 88.161562 
L 57.822813 88.161562 
L 66.822812 88.161562 
" style="fill: none; stroke: #1565c0; stroke-width: 2.5; stroke-linecap: round"/>
     <g>
      <use xlink:href="#mc86936d338" x="57.822813" y="88.161562" style="fill: #1565c0; stroke: #1565c0; stroke-linejoin: miter"/>
     </g>
    </g>
    <g id="text_16">
     <!-- FAISS Flat L2 -->
     <g style="fill: #262626" transform="translate(74.022813 91.311562) scale(0.09 -0.09)">
      <defs>
       <path id="ArialMT-46" d="M 525 0 
L 525 4581 
L 3616 4581 
L 3616 4041 
L 1131 4041 
L 1131 2622 
L 3281 2622 
L 3281 2081 
L 1131 2081 
L 1131 0 
L 525 0 
z
" transform="scale(0.015625)"/>
       <path id="ArialMT-41" d="M -9 0 
L 1750 4581 
L 2403 4581 
L 4278 0 
L 3588 0 
L 3053 1388 
L 1138 1388 
L 634 0 
L -9 0 
z
M 1313 1881 
L 2866 1881 
L 2388 3150 
Q 2169 3728 2063 4100 
Q 1975 3659 1816 3225 
L 1313 1881 
z
" transform="scale(0.015625)"/>
       <path id="ArialMT-49" d="M 597 0 
L 597 4581 
L 1203 4581 
L 1203 0 
L 597 0 
z
" transform="scale(0.015625)"/>
       <path id="ArialMT-53" d="M 288 1472 
L 859 1522 
Q 900 1178 1048 958 
Q 1197 738 1509 602 
Q 1822 466 2213 466 
Q 2559 466 2825 569 
Q 3091 672 3220 851 
Q 3350 1031 3350 1244 
Q 3350 1459 3225 1620 
Q 3100 1781 2813 1891 
Q 2628 1963 1997 2114 
Q 1366 2266 1113 2400 
Q 784 2572 623 2826 
Q 463 3081 463 3397 
Q 463 3744 659 4045 
Q 856 4347 1234 4503 
Q 1613 4659 2075 4659 
Q 2584 4659 2973 4495 
Q 3363 4331 3572 4012 
Q 3781 3694 3797 3291 
L 3216 3247 
Q 3169 3681 2898 3903 
Q 2628 4125 2100 4125 
Q 1550 4125 1298 3923 
Q 1047 3722 1047 3438 
Q 1047 3191 1225 3031 
Q 1400 2872 2139 2705 
Q 2878 2538 3153 2413 
Q 3553 2228 3743 1945 
Q 3934 1663 3934 1294 
Q 3934 928 3725 604 
Q 3516 281 3123 101 
Q 2731 -78 2241 -78 
Q 1619 -78 1198 103 
Q 778 284 539 648 
Q 300 1013 288 1472 
z
" transform="scale(0.015625)"/>
       <path id="ArialMT-20" transform="scale(0.015625)"/>
       <path id="ArialMT-6c" d="M 409 0 
L 409 4581 
L 972 4581 
L 972 0 
L 409 0 
z
" transform="scale(0.015625)"/>
       <path id="ArialMT-61" d="M 2588 409 
Q 2275 144 1986 34 
Q 1697 -75 1366 -75 
Q 819 -75 525 192 
Q 231 459 231 875 
Q 231 1119 342 1320 
Q 453 1522 633 1644 
Q 813 1766 1038 1828 
Q 1203 1872 1538 1913 
Q 2219 1994 2541 2106 
Q 2544 2222 2544 2253 
Q 2544 2597 2384 2738 
Q 2169 2928 1744 2928 
Q 1347 2928 1158 2789 
Q 969 2650 878 2297 
L 328 2372 
Q 403 2725 575 2942 
Q 747 3159 1072 3276 
Q 1397 3394 1825 3394 
Q 2250 3394 2515 3294 
Q 2781 3194 2906 3042 
Q 3031 2891 3081 2659 
Q 3109 2516 3109 2141 
L 3109 1391 
Q 3109 606 3145 398 
Q 3181 191 3288 0 
L 2700 0 
Q 2613 175 2588 409 
z
M 2541 1666 
Q 2234 1541 1622 1453 
Q 1275 1403 1131 1340 
Q 988 1278 909 1158 
Q 831 1038 831 891 
Q 831 666 1001 516 
Q 1172 366 1500 366 
Q 1825 366 2078 508 
Q 2331 650 2450 897 
Q 2541 1088 2541 1459 
L 2541 1666 
z
" transform="scale(0.015625)"/>
       <path id="ArialMT-4c" d="M 469 0 
L 469 4581 
L 1075 4581 
L 1075 541 
L 3331 541 
L 3331 0 
L 469 0 
z
" transform="scale(0.015625)"/>
      </defs>
      <use xlink:href="#ArialMT-46"/>
      <use xlink:href="#ArialMT-41" transform="translate(55.583984 0)"/>
      <use xlink:href="#ArialMT-49" transform="translate(122.283203 0)"/>
      <use xlink:href="#ArialMT-53" transform="translate(150.066406 0)"/>
      <use xlink:href="#ArialMT-53" transform="translate(216.765625 0)"/>
      <use xlink:href="#ArialMT-20" transform="translate(283.464844 0)"/>
      <use xlink:href="#ArialMT-46" transform="translate(311.248047 0)"/>
      <use xlink:href="#ArialMT-6c" transform="translate(372.332031 0)"/>
      <use xlink:href="#ArialMT-61" transform="translate(394.548828 0)"/>
      <use xlink:href="#ArialMT-74" transform="translate(450.164062 0)"/>
      <use xlink:href="#ArialMT-20" transform="translate(477.947266 0)"/>
      <use xlink:href="#ArialMT-4c" transform="translate(505.730469 0)"/>
      <use xlink:href="#ArialMT-32" transform="translate(561.345703 0)"/>
     </g>
    </g>
   </g>
  </g>
  <g id="axes_2">
   <g id="patch_8">
    <path d="M 542.699421 409.74 
L 993.616029 409.74 
L 993.616029 64.03875 
L 542.699421 64.03875 
z
" style="fill: #ffffff"/>
   </g>
   <g id="matplotlib.axis_3">
    <g id="xtick_10">
     <g id="line2d_59">
      <path d="M 563.19563 409.74 
L 563.19563 64.03875 
" clip-path="url(#p434a6857ad)" style="fill: none; stroke-dasharray: 2.96,1.28; stroke-dashoffset: 0; stroke: #cccccc; stroke-opacity: 0.5; stroke-width: 0.8"/>
     </g>
     <g id="line2d_60"/>
     <g id="text_17">
      <!-- 16 -->
      <g style="fill: #262626" transform="translate(557.634693 420.397812) scale(0.1 -0.1)">
       <use xlink:href="#ArialMT-31"/>
       <use xlink:href="#ArialMT-36" transform="translate(55.615234 0)"/>
      </g>
     </g>
    </g>
    <g id="xtick_11">
     <g id="line2d_61">
      <path d="M 631.516329 409.74 
L 631.516329 64.03875 
" clip-path="url(#p434a6857ad)" style="fill: none; stroke-dasharray: 2.96,1.28; stroke-dashoffset: 0; stroke: #cccccc; stroke-opacity: 0.5; stroke-width: 0.8"/>
     </g>
     <g id="line2d_62"/>
     <g id="text_18">
      <!-- 32 -->
      <g style="fill: #262626" transform="translate(625.955391 420.397812) scale(0.1 -0.1)">
       <use xlink:href="#ArialMT-33"/>
       <use xlink:href="#ArialMT-32" transform="translate(55.615234 0)"/>
      </g>
     </g>
    </g>
    <g id="xtick_12">
     <g id="line2d_63">
      <path d="M 699.837027 409.74 
L 699.837027 64.03875 
" clip-path="url(#p434a6857ad)" style="fill: none; stroke-dasharray: 2.96,1.28; stroke-dashoffset: 0; stroke: #cccccc; stroke-opacity: 0.5; stroke-width: 0.8"/>
     </g>
     <g id="line2d_64"/>
     <g id="text_19">
      <!-- 64 -->
      <g style="fill: #262626" transform="translate(694.276089 420.397812) scale(0.1 -0.1)">
       <use xlink:href="#ArialMT-36"/>
       <use xlink:href="#ArialMT-34" transform="translate(55.615234 0)"/>
      </g>
     </g>
    </g>
    <g id="xtick_13">
     <g id="line2d_65">
      <path d="M 768.157725 409.74 
L 768.157725 64.03875 
" clip-path="url(#p434a6857ad)" style="fill: none; stroke-dasharray: 2.96,1.28; stroke-dashoffset: 0; stroke: #cccccc; stroke-opacity: 0.5; stroke-width: 0.8"/>
     </g>
     <g id="line2d_66"/>
     <g id="text_20">
      <!-- 128 -->
      <g style="fill: #262626" transform="translate(759.816319 420.397812) scale(0.1 -0.1)">
       <use xlink:href="#ArialMT-31"/>
       <use xlink:href="#ArialMT-32" transform="translate(55.615234 0)"/>
       <use xlink:href="#ArialMT-38" transform="translate(111.230469 0)"/>
      </g>
     </g>
    </g>
    <g id="xtick_14">
     <g id="line2d_67">
      <path d="M 836.478423 409.74 
L 836.478423 64.03875 
" clip-path="url(#p434a6857ad)" style="fill: none; stroke-dasharray: 2.96,1.28; stroke-dashoffset: 0; stroke: #cccccc; stroke-opacity: 0.5; stroke-width: 0.8"/>
     </g>
     <g id="line2d_68"/>
     <g id="text_21">
      <!-- 256 -->
      <g style="fill: #262626" transform="translate(828.137017 420.397812) scale(0.1 -0.1)">
       <use xlink:href="#ArialMT-32"/>
       <use xlink:href="#ArialMT-35" transform="translate(55.615234 0)"/>
       <use xlink:href="#ArialMT-36" transform="translate(111.230469 0)"/>
      </g>
     </g>
    </g>
    <g id="xtick_15">
     <g id="line2d_69">
      <path d="M 876.44347 409.74 
L 876.44347 64.03875 
" clip-path="url(#p434a6857ad)" style="fill: none; stroke-dasharray: 2.96,1.28; stroke-dashoffset: 0; stroke: #cccccc; stroke-opacity: 0.5; stroke-width: 0.8"/>
     </g>
     <g id="line2d_70"/>
     <g id="text_22">
      <!-- 384 -->
      <g style="fill: #262626" transform="translate(868.102064 420.397812) scale(0.1 -0.1)">
       <use xlink:href="#ArialMT-33"/>
       <use xlink:href="#ArialMT-38" transform="translate(55.615234 0)"/>
       <use xlink:href="#ArialMT-34" transform="translate(111.230469 0)"/>
      </g>
     </g>
    </g>
    <g id="xtick_16">
     <g id="line2d_71">
      <path d="M 904.799122 409.74 
L 904.799122 64.03875 
" clip-path="url(#p434a6857ad)" style="fill: none; stroke-dasharray: 2.96,1.28; stroke-dashoffset: 0; stroke: #cccccc; stroke-opacity: 0.5; stroke-width: 0.8"/>
     </g>
     <g id="line2d_72"/>
     <g id="text_23">
      <!-- 512 -->
      <g style="fill: #262626" transform="translate(896.457715 420.397812) scale(0.1 -0.1)">
       <use xlink:href="#ArialMT-35"/>
       <use xlink:href="#ArialMT-31" transform="translate(55.615234 0)"/>
       <use xlink:href="#ArialMT-32" transform="translate(111.230469 0)"/>
      </g>
     </g>
    </g>
    <g id="xtick_17">
     <g id="line2d_73">
      <path d="M 944.764168 409.74 
L 944.764168 64.03875 
" clip-path="url(#p434a6857ad)" style="fill: none; stroke-dasharray: 2.96,1.28; stroke-dashoffset: 0; stroke: #cccccc; stroke-opacity: 0.5; stroke-width: 0.8"/>
     </g>
     <g id="line2d_74"/>
     <g id="text_24">
      <!-- 768 -->
      <g style="fill: #262626" transform="translate(936.422762 420.397812) scale(0.1 -0.1)">
       <use xlink:href="#ArialMT-37"/>
       <use xlink:href="#ArialMT-36" transform="translate(55.615234 0)"/>
       <use xlink:href="#ArialMT-38" transform="translate(111.230469 0)"/>
      </g>
     </g>
    </g>
    <g id="xtick_18">
     <g id="line2d_75">
      <path d="M 973.11982 409.74 
L 973.11982 64.03875 
" clip-path="url(#p434a6857ad)" style="fill: none; stroke-dasharray: 2.96,1.28; stroke-dashoffset: 0; stroke: #cccccc; stroke-opacity: 0.5; stroke-width: 0.8"/>
     </g>
     <g id="line2d_76"/>
     <g id="text_25">
      <!-- 1024 -->
      <g style="fill: #262626" transform="translate(961.997945 420.397812) scale(0.1 -0.1)">
       <use xlink:href="#ArialMT-31"/>
       <use xlink:href="#ArialMT-30" transform="translate(55.615234 0)"/>
       <use xlink:href="#ArialMT-32" transform="translate(111.230469 0)"/>
       <use xlink:href="#ArialMT-34" transform="translate(166.845703 0)"/>
      </g>
     </g>
    </g>
    <g id="text_26">
     <!-- Vector Dimensionality (D) -->
     <g style="fill: #262626" transform="translate(701.534678 434.392969) scale(0.11 -0.11)">
      <use xlink:href="#Arial-BoldMT-56"/>
      <use xlink:href="#Arial-BoldMT-65" transform="translate(61.199219 0)"/>
      <use xlink:href="#Arial-BoldMT-63" transform="translate(116.814453 0)"/>
      <use xlink:href="#Arial-BoldMT-74" transform="translate(172.429688 0)"/>
      <use xlink:href="#Arial-BoldMT-6f" transform="translate(205.730469 0)"/>
      <use xlink:href="#Arial-BoldMT-72" transform="translate(266.814453 0)"/>
      <use xlink:href="#Arial-BoldMT-20" transform="translate(305.730469 0)"/>
      <use xlink:href="#Arial-BoldMT-44" transform="translate(333.513672 0)"/>
      <use xlink:href="#Arial-BoldMT-69" transform="translate(405.730469 0)"/>
      <use xlink:href="#Arial-BoldMT-6d" transform="translate(433.513672 0)"/>
      <use xlink:href="#Arial-BoldMT-65" transform="translate(522.429688 0)"/>
      <use xlink:href="#Arial-BoldMT-6e" transform="translate(578.044922 0)"/>
      <use xlink:href="#Arial-BoldMT-73" transform="translate(639.128906 0)"/>
      <use xlink:href="#Arial-BoldMT-69" transform="translate(694.744141 0)"/>
      <use xlink:href="#Arial-BoldMT-6f" transform="translate(722.527344 0)"/>
      <use xlink:href="#Arial-BoldMT-6e" transform="translate(783.611328 0)"/>
      <use xlink:href="#Arial-BoldMT-61" transform="translate(844.695312 0)"/>
      <use xlink:href="#Arial-BoldMT-6c" transform="translate(900.310547 0)"/>
      <use xlink:href="#Arial-BoldMT-69" transform="translate(928.09375 0)"/>
      <use xlink:href="#Arial-BoldMT-74" transform="translate(955.876953 0)"/>
      <use xlink:href="#Arial-BoldMT-79" transform="translate(989.177734 0)"/>
      <use xlink:href="#Arial-BoldMT-20" transform="translate(1044.792969 0)"/>
      <use xlink:href="#Arial-BoldMT-28" transform="translate(1072.576172 0)"/>
      <use xlink:href="#Arial-BoldMT-44" transform="translate(1105.876953 0)"/>
      <use xlink:href="#Arial-BoldMT-29" transform="translate(1178.09375 0)"/>
     </g>
    </g>
   </g>
   <g id="matplotlib.axis_4">
    <g id="ytick_19">
     <g id="line2d_77">
      <path d="M 542.699421 397.436018 
L 993.616029 397.436018 
" clip-path="url(#p434a6857ad)" style="fill: none; stroke-dasharray: 2.96,1.28; stroke-dashoffset: 0; stroke: #cccccc; stroke-opacity: 0.5; stroke-width: 0.8"/>
     </g>
     <g id="line2d_78"/>
     <g id="text_27">
      <!-- 0 -->
      <g style="fill: #262626" transform="translate(533.638483 401.014924) scale(0.1 -0.1)">
       <use xlink:href="#ArialMT-30"/>
      </g>
     </g>
    </g>
    <g id="ytick_20">
     <g id="line2d_79">
      <path d="M 542.699421 337.469245 
L 993.616029 337.469245 
" clip-path="url(#p434a6857ad)" style="fill: none; stroke-dasharray: 2.96,1.28; stroke-dashoffset: 0; stroke: #cccccc; stroke-opacity: 0.5; stroke-width: 0.8"/>
     </g>
     <g id="line2d_80"/>
     <g id="text_28">
      <!-- 500 -->
      <g style="fill: #262626" transform="translate(522.516608 341.048151) scale(0.1 -0.1)">
       <use xlink:href="#ArialMT-35"/>
       <use xlink:href="#ArialMT-30" transform="translate(55.615234 0)"/>
       <use xlink:href="#ArialMT-30" transform="translate(111.230469 0)"/>
      </g>
     </g>
    </g>
    <g id="ytick_21">
     <g id="line2d_81">
      <path d="M 542.699421 277.502472 
L 993.616029 277.502472 
" clip-path="url(#p434a6857ad)" style="fill: none; stroke-dasharray: 2.96,1.28; stroke-dashoffset: 0; stroke: #cccccc; stroke-opacity: 0.5; stroke-width: 0.8"/>
     </g>
     <g id="line2d_82"/>
     <g id="text_29">
      <!-- 1000 -->
      <g style="fill: #262626" transform="translate(516.955671 281.081378) scale(0.1 -0.1)">
       <use xlink:href="#ArialMT-31"/>
       <use xlink:href="#ArialMT-30" transform="translate(55.615234 0)"/>
       <use xlink:href="#ArialMT-30" transform="translate(111.230469 0)"/>
       <use xlink:href="#ArialMT-30" transform="translate(166.845703 0)"/>
      </g>
     </g>
    </g>
    <g id="ytick_22">
     <g id="line2d_83">
      <path d="M 542.699421 217.535699 
L 993.616029 217.535699 
" clip-path="url(#p434a6857ad)" style="fill: none; stroke-dasharray: 2.96,1.28; stroke-dashoffset: 0; stroke: #cccccc; stroke-opacity: 0.5; stroke-width: 0.8"/>
     </g>
     <g id="line2d_84"/>
     <g id="text_30">
      <!-- 1500 -->
      <g style="fill: #262626" transform="translate(516.955671 221.114605) scale(0.1 -0.1)">
       <use xlink:href="#ArialMT-31"/>
       <use xlink:href="#ArialMT-35" transform="translate(55.615234 0)"/>
       <use xlink:href="#ArialMT-30" transform="translate(111.230469 0)"/>
       <use xlink:href="#ArialMT-30" transform="translate(166.845703 0)"/>
      </g>
     </g>
    </g>
    <g id="ytick_23">
     <g id="line2d_85">
      <path d="M 542.699421 157.568926 
L 993.616029 157.568926 
" clip-path="url(#p434a6857ad)" style="fill: none; stroke-dasharray: 2.96,1.28; stroke-dashoffset: 0; stroke: #cccccc; stroke-opacity: 0.5; stroke-width: 0.8"/>
     </g>
     <g id="line2d_86"/>
     <g id="text_31">
      <!-- 2000 -->
      <g style="fill: #262626" transform="translate(516.955671 161.147832) scale(0.1 -0.1)">
       <use xlink:href="#ArialMT-32"/>
       <use xlink:href="#ArialMT-30" transform="translate(55.615234 0)"/>
       <use xlink:href="#ArialMT-30" transform="translate(111.230469 0)"/>
       <use xlink:href="#ArialMT-30" transform="translate(166.845703 0)"/>
      </g>
     </g>
    </g>
    <g id="ytick_24">
     <g id="line2d_87">
      <path d="M 542.699421 97.602153 
L 993.616029 97.602153 
" clip-path="url(#p434a6857ad)" style="fill: none; stroke-dasharray: 2.96,1.28; stroke-dashoffset: 0; stroke: #cccccc; stroke-opacity: 0.5; stroke-width: 0.8"/>
     </g>
     <g id="line2d_88"/>
     <g id="text_32">
      <!-- 2500 -->
      <g style="fill: #262626" transform="translate(516.955671 101.181059) scale(0.1 -0.1)">
       <use xlink:href="#ArialMT-32"/>
       <use xlink:href="#ArialMT-35" transform="translate(55.615234 0)"/>
       <use xlink:href="#ArialMT-30" transform="translate(111.230469 0)"/>
       <use xlink:href="#ArialMT-30" transform="translate(166.845703 0)"/>
      </g>
     </g>
    </g>
    <g id="text_33">
     <!-- Throughput (MVPS) -->
     <g style="fill: #262626" transform="translate(510.640515 288.51375) rotate(-90) scale(0.11 -0.11)">
      <defs>
       <path id="Arial-BoldMT-54" d="M 1497 0 
L 1497 3806 
L 138 3806 
L 138 4581 
L 3778 4581 
L 3778 3806 
L 2422 3806 
L 2422 0 
L 1497 0 
z
" transform="scale(0.015625)"/>
       <path id="Arial-BoldMT-68" d="M 1334 4581 
L 1334 2897 
Q 1759 3394 2350 3394 
Q 2653 3394 2897 3281 
Q 3141 3169 3264 2994 
Q 3388 2819 3433 2606 
Q 3478 2394 3478 1947 
L 3478 0 
L 2600 0 
L 2600 1753 
Q 2600 2275 2550 2415 
Q 2500 2556 2373 2639 
Q 2247 2722 2056 2722 
Q 1838 2722 1666 2615 
Q 1494 2509 1414 2295 
Q 1334 2081 1334 1663 
L 1334 0 
L 456 0 
L 456 4581 
L 1334 4581 
z
" transform="scale(0.015625)"/>
       <path id="Arial-BoldMT-70" d="M 434 3319 
L 1253 3319 
L 1253 2831 
Q 1413 3081 1684 3237 
Q 1956 3394 2288 3394 
Q 2866 3394 3269 2941 
Q 3672 2488 3672 1678 
Q 3672 847 3265 386 
Q 2859 -75 2281 -75 
Q 2006 -75 1782 34 
Q 1559 144 1313 409 
L 1313 -1263 
L 434 -1263 
L 434 3319 
z
M 1303 1716 
Q 1303 1156 1525 889 
Q 1747 622 2066 622 
Q 2372 622 2575 867 
Q 2778 1113 2778 1672 
Q 2778 2194 2568 2447 
Q 2359 2700 2050 2700 
Q 1728 2700 1515 2451 
Q 1303 2203 1303 1716 
z
" transform="scale(0.015625)"/>
       <path id="Arial-BoldMT-4d" d="M 453 0 
L 453 4581 
L 1838 4581 
L 2669 1456 
L 3491 4581 
L 4878 4581 
L 4878 0 
L 4019 0 
L 4019 3606 
L 3109 0 
L 2219 0 
L 1313 3606 
L 1313 0 
L 453 0 
z
" transform="scale(0.015625)"/>
       <path id="Arial-BoldMT-50" d="M 466 0 
L 466 4581 
L 1950 4581 
Q 2794 4581 3050 4513 
Q 3444 4409 3709 4064 
Q 3975 3719 3975 3172 
Q 3975 2750 3822 2462 
Q 3669 2175 3433 2011 
Q 3197 1847 2953 1794 
Q 2622 1728 1994 1728 
L 1391 1728 
L 1391 0 
L 466 0 
z
M 1391 3806 
L 1391 2506 
L 1897 2506 
Q 2444 2506 2628 2578 
Q 2813 2650 2917 2803 
Q 3022 2956 3022 3159 
Q 3022 3409 2875 3571 
Q 2728 3734 2503 3775 
Q 2338 3806 1838 3806 
L 1391 3806 
z
" transform="scale(0.015625)"/>
      </defs>
      <use xlink:href="#Arial-BoldMT-54"/>
      <use xlink:href="#Arial-BoldMT-68" transform="translate(61.083984 0)"/>
      <use xlink:href="#Arial-BoldMT-72" transform="translate(122.167969 0)"/>
      <use xlink:href="#Arial-BoldMT-6f" transform="translate(161.083984 0)"/>
      <use xlink:href="#Arial-BoldMT-75" transform="translate(222.167969 0)"/>
      <use xlink:href="#Arial-BoldMT-67" transform="translate(283.251953 0)"/>
      <use xlink:href="#Arial-BoldMT-68" transform="translate(344.335938 0)"/>
      <use xlink:href="#Arial-BoldMT-70" transform="translate(405.419922 0)"/>
      <use xlink:href="#Arial-BoldMT-75" transform="translate(466.503906 0)"/>
      <use xlink:href="#Arial-BoldMT-74" transform="translate(527.587891 0)"/>
      <use xlink:href="#Arial-BoldMT-20" transform="translate(560.888672 0)"/>
      <use xlink:href="#Arial-BoldMT-28" transform="translate(588.671875 0)"/>
      <use xlink:href="#Arial-BoldMT-4d" transform="translate(621.972656 0)"/>
      <use xlink:href="#Arial-BoldMT-56" transform="translate(705.273438 0)"/>
      <use xlink:href="#Arial-BoldMT-50" transform="translate(771.972656 0)"/>
      <use xlink:href="#Arial-BoldMT-53" transform="translate(838.671875 0)"/>
      <use xlink:href="#Arial-BoldMT-29" transform="translate(905.371094 0)"/>
     </g>
    </g>
   </g>
   <g id="line2d_89">
    <path d="M 563.19563 266.887153 
L 631.516329 273.57105 
L 699.837027 269.807535 
L 768.157725 298.939394 
L 836.478423 310.686884 
L 876.44347 328.458637 
L 904.799122 332.916567 
L 944.764168 341.183587 
L 973.11982 358.891775 
" clip-path="url(#p434a6857ad)" style="fill: none; stroke: #2e7d32; stroke-width: 2.5; stroke-linecap: round"/>
    <g clip-path="url(#p434a6857ad)">
     <use xlink:href="#mdc29f09215" x="563.19563" y="266.887153" style="fill: #2e7d32; stroke: #2e7d32"/>
     <use xlink:href="#mdc29f09215" x="631.516329" y="273.57105" style="fill: #2e7d32; stroke: #2e7d32"/>
     <use xlink:href="#mdc29f09215" x="699.837027" y="269.807535" style="fill: #2e7d32; stroke: #2e7d32"/>
     <use xlink:href="#mdc29f09215" x="768.157725" y="298.939394" style="fill: #2e7d32; stroke: #2e7d32"/>
     <use xlink:href="#mdc29f09215" x="836.478423" y="310.686884" style="fill: #2e7d32; stroke: #2e7d32"/>
     <use xlink:href="#mdc29f09215" x="876.44347" y="328.458637" style="fill: #2e7d32; stroke: #2e7d32"/>
     <use xlink:href="#mdc29f09215" x="904.799122" y="332.916567" style="fill: #2e7d32; stroke: #2e7d32"/>
     <use xlink:href="#mdc29f09215" x="944.764168" y="341.183587" style="fill: #2e7d32; stroke: #2e7d32"/>
     <use xlink:href="#mdc29f09215" x="973.11982" y="358.891775" style="fill: #2e7d32; stroke: #2e7d32"/>
    </g>
   </g>
   <g id="line2d_90">
    <path d="M 563.19563 79.752443 
L 631.516329 167.139623 
L 699.837027 291.381182 
L 768.157725 360.143881 
L 836.478423 381.001524 
L 876.44347 386.439311 
L 904.799122 389.287732 
L 944.764168 392.10737 
L 973.11982 394.026307 
" clip-path="url(#p434a6857ad)" style="fill: none; stroke: #1565c0; stroke-width: 2.5; stroke-linecap: round"/>
    <g clip-path="url(#p434a6857ad)">
     <use xlink:href="#mc86936d338" x="563.19563" y="79.752443" style="fill: #1565c0; stroke: #1565c0; stroke-linejoin: miter"/>
     <use xlink:href="#mc86936d338" x="631.516329" y="167.139623" style="fill: #1565c0; stroke: #1565c0; stroke-linejoin: miter"/>
     <use xlink:href="#mc86936d338" x="699.837027" y="291.381182" style="fill: #1565c0; stroke: #1565c0; stroke-linejoin: miter"/>
     <use xlink:href="#mc86936d338" x="768.157725" y="360.143881" style="fill: #1565c0; stroke: #1565c0; stroke-linejoin: miter"/>
     <use xlink:href="#mc86936d338" x="836.478423" y="381.001524" style="fill: #1565c0; stroke: #1565c0; stroke-linejoin: miter"/>
     <use xlink:href="#mc86936d338" x="876.44347" y="386.439311" style="fill: #1565c0; stroke: #1565c0; stroke-linejoin: miter"/>
     <use xlink:href="#mc86936d338" x="904.799122" y="389.287732" style="fill: #1565c0; stroke: #1565c0; stroke-linejoin: miter"/>
     <use xlink:href="#mc86936d338" x="944.764168" y="392.10737" style="fill: #1565c0; stroke: #1565c0; stroke-linejoin: miter"/>
     <use xlink:href="#mc86936d338" x="973.11982" y="394.026307" style="fill: #1565c0; stroke: #1565c0; stroke-linejoin: miter"/>
    </g>
   </g>
   <g id="patch_9">
    <path d="M 542.699421 409.74 
L 542.699421 64.03875 
" style="fill: none; stroke: #cccccc; stroke-linejoin: miter; stroke-linecap: square"/>
   </g>
   <g id="patch_10">
    <path d="M 993.616029 409.74 
L 993.616029 64.03875 
" style="fill: none; stroke: #cccccc; stroke-linejoin: miter; stroke-linecap: square"/>
   </g>
   <g id="patch_11">
    <path d="M 542.699421 409.74 
L 993.616029 409.74 
" style="fill: none; stroke: #cccccc; stroke-linejoin: miter; stroke-linecap: square"/>
   </g>
   <g id="patch_12">
    <path d="M 542.699421 64.03875 
L 993.616029 64.03875 
" style="fill: none; stroke: #cccccc; stroke-linejoin: miter; stroke-linecap: square"/>
   </g>
   <g id="text_34">
    <!-- Multi-Query Throughput (higher is better) -->
    <g style="fill: #262626" transform="translate(650.5071 58.03875) scale(0.12 -0.12)">
     <use xlink:href="#Arial-BoldMT-4d"/>
     <use xlink:href="#Arial-BoldMT-75" transform="translate(83.300781 0)"/>
     <use xlink:href="#Arial-BoldMT-6c" transform="translate(144.384766 0)"/>
     <use xlink:href="#Arial-BoldMT-74" transform="translate(172.167969 0)"/>
     <use xlink:href="#Arial-BoldMT-69" transform="translate(205.46875 0)"/>
     <use xlink:href="#Arial-BoldMT-2d" transform="translate(233.251953 0)"/>
     <use xlink:href="#Arial-BoldMT-51" transform="translate(266.552734 0)"/>
     <use xlink:href="#Arial-BoldMT-75" transform="translate(344.335938 0)"/>
     <use xlink:href="#Arial-BoldMT-65" transform="translate(405.419922 0)"/>
     <use xlink:href="#Arial-BoldMT-72" transform="translate(461.035156 0)"/>
     <use xlink:href="#Arial-BoldMT-79" transform="translate(499.951172 0)"/>
     <use xlink:href="#Arial-BoldMT-20" transform="translate(555.566406 0)"/>
     <use xlink:href="#Arial-BoldMT-54" transform="translate(583.349609 0)"/>
     <use xlink:href="#Arial-BoldMT-68" transform="translate(644.433594 0)"/>
     <use xlink:href="#Arial-BoldMT-72" transform="translate(705.517578 0)"/>
     <use xlink:href="#Arial-BoldMT-6f" transform="translate(744.433594 0)"/>
     <use xlink:href="#Arial-BoldMT-75" transform="translate(805.517578 0)"/>
     <use xlink:href="#Arial-BoldMT-67" transform="translate(866.601562 0)"/>
     <use xlink:href="#Arial-BoldMT-68" transform="translate(927.685547 0)"/>
     <use xlink:href="#Arial-BoldMT-70" transform="translate(988.769531 0)"/>
     <use xlink:href="#Arial-BoldMT-75" transform="translate(1049.853516 0)"/>
     <use xlink:href="#Arial-BoldMT-74" transform="translate(1110.9375 0)"/>
     <use xlink:href="#Arial-BoldMT-20" transform="translate(1144.238281 0)"/>
     <use xlink:href="#Arial-BoldMT-28" transform="translate(1172.021484 0)"/>
     <use xlink:href="#Arial-BoldMT-68" transform="translate(1205.322266 0)"/>
     <use xlink:href="#Arial-BoldMT-69" transform="translate(1266.40625 0)"/>
     <use xlink:href="#Arial-BoldMT-67" transform="translate(1294.189453 0)"/>
     <use xlink:href="#Arial-BoldMT-68" transform="translate(1355.273438 0)"/>
     <use xlink:href="#Arial-BoldMT-65" transform="translate(1416.357422 0)"/>
     <use xlink:href="#Arial-BoldMT-72" transform="translate(1471.972656 0)"/>
     <use xlink:href="#Arial-BoldMT-20" transform="translate(1510.888672 0)"/>
     <use xlink:href="#Arial-BoldMT-69" transform="translate(1538.671875 0)"/>
     <use xlink:href="#Arial-BoldMT-73" transform="translate(1566.455078 0)"/>
     <use xlink:href="#Arial-BoldMT-20" transform="translate(1622.070312 0)"/>
     <use xlink:href="#Arial-BoldMT-62" transform="translate(1649.853516 0)"/>
     <use xlink:href="#Arial-BoldMT-65" transform="translate(1710.9375 0)"/>
     <use xlink:href="#Arial-BoldMT-74" transform="translate(1766.552734 0)"/>
     <use xlink:href="#Arial-BoldMT-74" transform="translate(1799.853516 0)"/>
     <use xlink:href="#Arial-BoldMT-65" transform="translate(1833.154297 0)"/>
     <use xlink:href="#Arial-BoldMT-72" transform="translate(1888.769531 0)"/>
     <use xlink:href="#Arial-BoldMT-29" transform="translate(1927.685547 0)"/>
    </g>
   </g>
   <g id="legend_2">
    <g id="patch_13">
     <path d="M 902.991654 96.700312 
L 987.316029 96.700312 
Q 989.116029 96.700312 989.116029 94.900312 
L 989.116029 70.33875 
Q 989.116029 68.53875 987.316029 68.53875 
L 902.991654 68.53875 
Q 901.191654 68.53875 901.191654 70.33875 
L 901.191654 94.900312 
Q 901.191654 96.700312 902.991654 96.700312 
z
" style="fill: #ffffff; opacity: 0.8; stroke: #cccccc; stroke-linejoin: miter"/>
    </g>
    <g id="line2d_91">
     <path d="M 904.791654 75.430781 
L 913.791654 75.430781 
L 922.791654 75.430781 
" style="fill: none; stroke: #2e7d32; stroke-width: 2.5; stroke-linecap: round"/>
     <g>
      <use xlink:href="#mdc29f09215" x="913.791654" y="75.430781" style="fill: #2e7d32; stroke: #2e7d32"/>
     </g>
    </g>
    <g id="text_35">
     <!-- Pithos -->
     <g style="fill: #262626" transform="translate(929.991654 78.580781) scale(0.09 -0.09)">
      <use xlink:href="#ArialMT-50"/>
      <use xlink:href="#ArialMT-69" transform="translate(66.699219 0)"/>
      <use xlink:href="#ArialMT-74" transform="translate(88.916016 0)"/>
      <use xlink:href="#ArialMT-68" transform="translate(116.699219 0)"/>
      <use xlink:href="#ArialMT-6f" transform="translate(172.314453 0)"/>
      <use xlink:href="#ArialMT-73" transform="translate(227.929688 0)"/>
     </g>
    </g>
    <g id="line2d_92">
     <path d="M 904.791654 88.161562 
L 913.791654 88.161562 
L 922.791654 88.161562 
" style="fill: none; stroke: #1565c0; stroke-width: 2.5; stroke-linecap: round"/>
     <g>
      <use xlink:href="#mc86936d338" x="913.791654" y="88.161562" style="fill: #1565c0; stroke: #1565c0; stroke-linejoin: miter"/>
     </g>
    </g>
    <g id="text_36">
     <!-- FAISS Flat L2 -->
     <g style="fill: #262626" transform="translate(929.991654 91.311562) scale(0.09 -0.09)">
      <use xlink:href="#ArialMT-46"/>
      <use xlink:href="#ArialMT-41" transform="translate(55.583984 0)"/>
      <use xlink:href="#ArialMT-49" transform="translate(122.283203 0)"/>
      <use xlink:href="#ArialMT-53" transform="translate(150.066406 0)"/>
      <use xlink:href="#ArialMT-53" transform="translate(216.765625 0)"/>
      <use xlink:href="#ArialMT-20" transform="translate(283.464844 0)"/>
      <use xlink:href="#ArialMT-46" transform="translate(311.248047 0)"/>
      <use xlink:href="#ArialMT-6c" transform="translate(372.332031 0)"/>
      <use xlink:href="#ArialMT-61" transform="translate(394.548828 0)"/>
      <use xlink:href="#ArialMT-74" transform="translate(450.164062 0)"/>
      <use xlink:href="#ArialMT-20" transform="translate(477.947266 0)"/>
      <use xlink:href="#ArialMT-4c" transform="translate(505.730469 0)"/>
      <use xlink:href="#ArialMT-32" transform="translate(561.345703 0)"/>
     </g>
    </g>
   </g>
  </g>
  <g id="text_37">
   <!-- Pithos vs FAISS Flat L2 - - Crossover Curve (100k records, K=100) -->
   <g style="fill: #262626" transform="translate(298.669232 16.663594) scale(0.13 -0.13)">
    <defs>
     <path id="Arial-BoldMT-76" d="M 1372 0 
L 34 3319 
L 956 3319 
L 1581 1625 
L 1763 1059 
Q 1834 1275 1853 1344 
Q 1897 1484 1947 1625 
L 2578 3319 
L 3481 3319 
L 2163 0 
L 1372 0 
z
" transform="scale(0.015625)"/>
     <path id="Arial-BoldMT-46" d="M 472 0 
L 472 4581 
L 3613 4581 
L 3613 3806 
L 1397 3806 
L 1397 2722 
L 3309 2722 
L 3309 1947 
L 1397 1947 
L 1397 0 
L 472 0 
z
" transform="scale(0.015625)"/>
     <path id="Arial-BoldMT-41" d="M 4597 0 
L 3591 0 
L 3191 1041 
L 1359 1041 
L 981 0 
L 0 0 
L 1784 4581 
L 2763 4581 
L 4597 0 
z
M 2894 1813 
L 2263 3513 
L 1644 1813 
L 2894 1813 
z
" transform="scale(0.015625)"/>
     <path id="Arial-BoldMT-49" d="M 438 0 
L 438 4581 
L 1363 4581 
L 1363 0 
L 438 0 
z
" transform="scale(0.015625)"/>
     <path id="Arial-BoldMT-32" d="M 3238 816 
L 3238 0 
L 159 0 
Q 209 463 459 877 
Q 709 1291 1447 1975 
Q 2041 2528 2175 2725 
Q 2356 2997 2356 3263 
Q 2356 3556 2198 3714 
Q 2041 3872 1763 3872 
Q 1488 3872 1325 3706 
Q 1163 3541 1138 3156 
L 263 3244 
Q 341 3969 753 4284 
Q 1166 4600 1784 4600 
Q 2463 4600 2850 4234 
Q 3238 3869 3238 3325 
Q 3238 3016 3127 2736 
Q 3016 2456 2775 2150 
Q 2616 1947 2200 1565 
Q 1784 1184 1673 1059 
Q 1563 934 1494 816 
L 3238 816 
z
" transform="scale(0.015625)"/>
     <path id="Arial-BoldMT-43" d="M 3397 1684 
L 4294 1400 
Q 4088 650 3608 286 
Q 3128 -78 2391 -78 
Q 1478 -78 890 545 
Q 303 1169 303 2250 
Q 303 3394 893 4026 
Q 1484 4659 2447 4659 
Q 3288 4659 3813 4163 
Q 4125 3869 4281 3319 
L 3366 3100 
Q 3284 3456 3026 3662 
Q 2769 3869 2400 3869 
Q 1891 3869 1573 3503 
Q 1256 3138 1256 2319 
Q 1256 1450 1568 1081 
Q 1881 713 2381 713 
Q 2750 713 3015 947 
Q 3281 1181 3397 1684 
z
" transform="scale(0.015625)"/>
     <path id="Arial-BoldMT-31" d="M 2519 0 
L 1641 0 
L 1641 3309 
Q 1159 2859 506 2644 
L 506 3441 
Q 850 3553 1253 3867 
Q 1656 4181 1806 4600 
L 2519 4600 
L 2519 0 
z
" transform="scale(0.015625)"/>
     <path id="Arial-BoldMT-30" d="M 1756 4600 
Q 2422 4600 2797 4125 
Q 3244 3563 3244 2259 
Q 3244 959 2794 391 
Q 2422 -78 1756 -78 
Q 1088 -78 678 436 
Q 269 950 269 2269 
Q 269 3563 719 4131 
Q 1091 4600 1756 4600 
z
M 1756 3872 
Q 1597 3872 1472 3770 
Q 1347 3669 1278 3406 
Q 1188 3066 1188 2259 
Q 1188 1453 1269 1151 
Q 1350 850 1473 750 
Q 1597 650 1756 650 
Q 1916 650 2041 751 
Q 2166 853 2234 1116 
Q 2325 1453 2325 2259 
Q 2325 3066 2244 3367 
Q 2163 3669 2039 3770 
Q 1916 3872 1756 3872 
z
" transform="scale(0.015625)"/>
     <path id="Arial-BoldMT-6b" d="M 428 0 
L 428 4581 
L 1306 4581 
L 1306 2150 
L 2334 3319 
L 3416 3319 
L 2281 2106 
L 3497 0 
L 2550 0 
L 1716 1491 
L 1306 1063 
L 1306 0 
L 428 0 
z
" transform="scale(0.015625)"/>
     <path id="Arial-BoldMT-64" d="M 3503 0 
L 2688 0 
L 2688 488 
Q 2484 203 2207 64 
Q 1931 -75 1650 -75 
Q 1078 -75 670 386 
Q 263 847 263 1672 
Q 263 2516 659 2955 
Q 1056 3394 1663 3394 
Q 2219 3394 2625 2931 
L 2625 4581 
L 3503 4581 
L 3503 0 
z
M 1159 1731 
Q 1159 1200 1306 963 
Q 1519 619 1900 619 
Q 2203 619 2415 876 
Q 2628 1134 2628 1647 
Q 2628 2219 2422 2470 
Q 2216 2722 1894 2722 
Q 1581 2722 1370 2473 
Q 1159 2225 1159 1731 
z
" transform="scale(0.015625)"/>
     <path id="Arial-BoldMT-2c" d="M 438 878 
L 1316 878 
L 1316 250 
Q 1316 -131 1250 -351 
Q 1184 -572 1001 -747 
Q 819 -922 538 -1022 
L 366 -659 
Q 631 -572 743 -419 
Q 856 -266 863 0 
L 438 0 
L 438 878 
z
" transform="scale(0.015625)"/>
     <path id="Arial-BoldMT-4b" d="M 478 0 
L 478 4581 
L 1403 4581 
L 1403 2547 
L 3272 4581 
L 4516 4581 
L 2791 2797 
L 4609 0 
L 3413 0 
L 2153 2150 
L 1403 1384 
L 1403 0 
L 478 0 
z
" transform="scale(0.015625)"/>
     <path id="Arial-BoldMT-3d" d="M 266 2550 
L 266 3356 
L 3469 3356 
L 3469 2550 
L 266 2550 
z
M 266 1163 
L 266 1972 
L 3469 1972 
L 3469 1163 
L 266 1163 
z
" transform="scale(0.015625)"/>
    </defs>
    <use xlink:href="#Arial-BoldMT-50"/>
    <use xlink:href="#Arial-BoldMT-69" transform="translate(66.699219 0)"/>
    <use xlink:href="#Arial-BoldMT-74" transform="translate(94.482422 0)"/>
    <use xlink:href="#Arial-BoldMT-68" transform="translate(127.783203 0)"/>
    <use xlink:href="#Arial-BoldMT-6f" transform="translate(188.867188 0)"/>
    <use xlink:href="#Arial-BoldMT-73" transform="translate(249.951172 0)"/>
    <use xlink:href="#Arial-BoldMT-20" transform="translate(305.566406 0)"/>
    <use xlink:href="#Arial-BoldMT-76" transform="translate(333.349609 0)"/>
    <use xlink:href="#Arial-BoldMT-73" transform="translate(388.964844 0)"/>
    <use xlink:href="#Arial-BoldMT-20" transform="translate(444.580078 0)"/>
    <use xlink:href="#Arial-BoldMT-46" transform="translate(472.363281 0)"/>
    <use xlink:href="#Arial-BoldMT-41" transform="translate(527.947266 0)"/>
    <use xlink:href="#Arial-BoldMT-49" transform="translate(600.164062 0)"/>
    <use xlink:href="#Arial-BoldMT-53" transform="translate(627.947266 0)"/>
    <use xlink:href="#Arial-BoldMT-53" transform="translate(694.646484 0)"/>
    <use xlink:href="#Arial-BoldMT-20" transform="translate(761.345703 0)"/>
    <use xlink:href="#Arial-BoldMT-46" transform="translate(789.128906 0)"/>
    <use xlink:href="#Arial-BoldMT-6c" transform="translate(850.212891 0)"/>
    <use xlink:href="#Arial-BoldMT-61" transform="translate(877.996094 0)"/>
    <use xlink:href="#Arial-BoldMT-74" transform="translate(933.611328 0)"/>
    <use xlink:href="#Arial-BoldMT-20" transform="translate(966.912109 0)"/>
    <use xlink:href="#Arial-BoldMT-4c" transform="translate(994.695312 0)"/>
    <use xlink:href="#Arial-BoldMT-32" transform="translate(1055.779297 0)"/>
    <use xlink:href="#Arial-BoldMT-20" transform="translate(1111.394531 0)"/>
    <use xlink:href="#Arial-BoldMT-2d" transform="translate(1139.177734 0)"/>
    <use xlink:href="#Arial-BoldMT-2d" transform="translate(1172.478516 0)"/>
    <use xlink:href="#Arial-BoldMT-20" transform="translate(1205.779297 0)"/>
    <use xlink:href="#Arial-BoldMT-43" transform="translate(1233.5625 0)"/>
    <use xlink:href="#Arial-BoldMT-72" transform="translate(1305.779297 0)"/>
    <use xlink:href="#Arial-BoldMT-6f" transform="translate(1344.695312 0)"/>
    <use xlink:href="#Arial-BoldMT-73" transform="translate(1405.779297 0)"/>
    <use xlink:href="#Arial-BoldMT-73" transform="translate(1461.394531 0)"/>
    <use xlink:href="#Arial-BoldMT-6f" transform="translate(1517.009766 0)"/>
    <use xlink:href="#Arial-BoldMT-76" transform="translate(1578.09375 0)"/>
    <use xlink:href="#Arial-BoldMT-65" transform="translate(1633.708984 0)"/>
    <use xlink:href="#Arial-BoldMT-72" transform="translate(1689.324219 0)"/>
    <use xlink:href="#Arial-BoldMT-20" transform="translate(1728.240234 0)"/>
    <use xlink:href="#Arial-BoldMT-43" transform="translate(1756.023438 0)"/>
    <use xlink:href="#Arial-BoldMT-75" transform="translate(1828.240234 0)"/>
    <use xlink:href="#Arial-BoldMT-72" transform="translate(1889.324219 0)"/>
    <use xlink:href="#Arial-BoldMT-76" transform="translate(1928.240234 0)"/>
    <use xlink:href="#Arial-BoldMT-65" transform="translate(1983.855469 0)"/>
    <use xlink:href="#Arial-BoldMT-20" transform="translate(2039.470703 0)"/>
    <use xlink:href="#Arial-BoldMT-28" transform="translate(2067.253906 0)"/>
    <use xlink:href="#Arial-BoldMT-31" transform="translate(2100.554688 0)"/>
    <use xlink:href="#Arial-BoldMT-30" transform="translate(2156.169922 0)"/>
    <use xlink:href="#Arial-BoldMT-30" transform="translate(2211.785156 0)"/>
    <use xlink:href="#Arial-BoldMT-6b" transform="translate(2267.400391 0)"/>
    <use xlink:href="#Arial-BoldMT-20" transform="translate(2323.015625 0)"/>
    <use xlink:href="#Arial-BoldMT-72" transform="translate(2350.798828 0)"/>
    <use xlink:href="#Arial-BoldMT-65" transform="translate(2389.714844 0)"/>
    <use xlink:href="#Arial-BoldMT-63" transform="translate(2445.330078 0)"/>
    <use xlink:href="#Arial-BoldMT-6f" transform="translate(2500.945312 0)"/>
    <use xlink:href="#Arial-BoldMT-72" transform="translate(2562.029297 0)"/>
    <use xlink:href="#Arial-BoldMT-64" transform="translate(2600.945312 0)"/>
    <use xlink:href="#Arial-BoldMT-73" transform="translate(2662.029297 0)"/>
    <use xlink:href="#Arial-BoldMT-2c" transform="translate(2717.644531 0)"/>
    <use xlink:href="#Arial-BoldMT-20" transform="translate(2745.427734 0)"/>
    <use xlink:href="#Arial-BoldMT-4b" transform="translate(2773.210938 0)"/>
    <use xlink:href="#Arial-BoldMT-3d" transform="translate(2845.427734 0)"/>
    <use xlink:href="#Arial-BoldMT-31" transform="translate(2903.826172 0)"/>
    <use xlink:href="#Arial-BoldMT-30" transform="translate(2959.441406 0)"/>
    <use xlink:href="#Arial-BoldMT-30" transform="translate(3015.056641 0)"/>
    <use xlink:href="#Arial-BoldMT-29" transform="translate(3070.671875 0)"/>
   </g>
  </g>
 </g>
 <defs>
  <clipPath id="p95a3c19faf">
   <rect x="40.722813" y="64.03875" width="450.916608" height="345.70125"/>
  </clipPath>
  <clipPath id="p434a6857ad">
   <rect x="542.699421" y="64.03875" width="450.916608" height="345.70125"/>
  </clipPath>
 </defs>
</svg>
